Source-UFO
<glyph name="exclam" format="2">
  <advance width="343"/>
  <unicode hex="0021"/>
  <outline>
    <contour>
      <point x="331" y="216" type="line"/>
      <point x="12" y="216" type="line"/>
      <point x="12" y="230" type="line"/>
      <point x="28" y="236"/>
      <point x="58" y="259"/>
      <point x="58" y="278" type="qcurve" smooth="yes"/>
      <point x="58" y="618" type="line" smooth="yes"/>
      <point x="58" y="637"/>
      <point x="27" y="660"/>
      <point x="12" y="666" type="qcurve"/>
      <point x="12" y="679" type="line"/>
      <point x="331" y="679" type="line"/>
      <point x="331" y="666" type="line"/>
      <point x="316" y="660"/>
      <point x="285" y="637"/>
      <point x="285" y="618" type="qcurve" smooth="yes"/>
      <point x="285" y="278" type="line" smooth="yes"/>
      <point x="285" y="259"/>
      <point x="315" y="236"/>
      <point x="331" y="230" type="qcurve"/>
    </contour>
    <contour>
      <point x="285" y="93" type="qcurve" smooth="yes"/>
      <point x="285" y="71"/>
      <point x="264" y="37"/>
      <point x="232" y="13"/>
      <point x="191" y="0"/>
      <point x="172" y="0" type="qcurve" smooth="yes"/>
      <point x="152" y="0"/>
      <point x="112" y="12"/>
      <point x="79" y="36"/>
      <point x="58" y="70"/>
      <point x="58" y="93" type="qcurve" smooth="yes"/>
      <point x="58" y="115"/>
      <point x="79" y="150"/>
      <point x="112" y="174"/>
      <point x="152" y="186"/>
      <point x="172" y="186" type="qcurve" smooth="yes"/>
      <point x="191" y="186"/>
      <point x="232" y="173"/>
      <point x="264" y="149"/>
      <point x="285" y="115"/>
    </contour>
  </outline>
</glyph>
<glyph name="quotedbl" format="2">
  <advance width="439"/>
  <unicode hex="0022"/>
  <outline>
    <contour>
      <point x="26" y="650" type="line"/>
      <point x="207" y="650" type="line"/>
      <point x="164" y="388" type="line"/>
      <point x="57" y="388" type="line"/>
    </contour>
    <contour>
      <point x="241" y="650" type="line"/>
      <point x="422" y="650" type="line"/>
      <point x="379" y="388" type="line"/>
      <point x="272" y="388" type="line"/>
    </contour>
  </outline>
</glyph>
<glyph name="numbersign" format="2">
  <advance width="735"/>
  <unicode hex="0023"/>
  <outline>
    <contour>
      <point x="376" y="655" type="line"/>
      <point x="373" y="642" type="line"/>
      <point x="356" y="636"/>
      <point x="321" y="614"/>
      <point x="317" y="594" type="qcurve" smooth="yes"/>
      <point x="305" y="538" type="line"/>
      <point x="494" y="538" type="line"/>
      <point x="506" y="594" type="line" smooth="yes"/>
      <point x="507" y="597"/>
      <point x="507" y="603" type="qcurve" smooth="yes"/>
      <point x="507" y="617"/>
      <point x="485" y="636"/>
      <point x="470" y="642" type="qcurve"/>
      <point x="473" y="655" type="line"/>
      <point x="643" y="655" type="line"/>
      <point x="640" y="642" type="line"/>
      <point x="623" y="636"/>
      <point x="588" y="614"/>
      <point x="584" y="594" type="qcurve" smooth="yes"/>
      <point x="572" y="538" type="line"/>
      <point x="646" y="538" type="line" smooth="yes"/>
      <point x="666" y="538"/>
      <point x="694" y="568"/>
      <point x="704" y="584" type="qcurve"/>
      <point x="718" y="584" type="line"/>
      <point x="681" y="414" type="line"/>
      <point x="667" y="414" type="line"/>
      <point x="665" y="430"/>
      <point x="649" y="460"/>
      <point x="629" y="460" type="qcurve" smooth="yes"/>
      <point x="555" y="460" type="line"/>
      <point x="517" y="279" type="line"/>
      <point x="591" y="279" type="line" smooth="yes"/>
      <point x="611" y="279"/>
      <point x="639" y="309"/>
      <point x="649" y="325" type="qcurve"/>
      <point x="663" y="325" type="line"/>
      <point x="626" y="155" type="line"/>
      <point x="612" y="155" type="line"/>
      <point x="610" y="171"/>
      <point x="594" y="201"/>
      <point x="574" y="201" type="qcurve" smooth="yes"/>
      <point x="500" y="201" type="line"/>
      <point x="481" y="111" type="line" smooth="yes"/>
      <point x="480" y="108"/>
      <point x="480" y="102" type="qcurve" smooth="yes"/>
      <point x="480" y="88"/>
      <point x="502" y="69"/>
      <point x="517" y="63" type="qcurve"/>
      <point x="514" y="49" type="line"/>
      <point x="344" y="49" type="line"/>
      <point x="347" y="63" type="line"/>
      <point x="364" y="69"/>
      <point x="399" y="91"/>
      <point x="403" y="111" type="qcurve" smooth="yes"/>
      <point x="422" y="201" type="line"/>
      <point x="233" y="201" type="line"/>
      <point x="214" y="111" type="line" smooth="yes"/>
      <point x="213" y="108"/>
      <point x="213" y="102" type="qcurve" smooth="yes"/>
      <point x="213" y="88"/>
      <point x="235" y="69"/>
      <point x="250" y="63" type="qcurve"/>
      <point x="247" y="49" type="line"/>
      <point x="77" y="49" type="line"/>
      <point x="80" y="63" type="line"/>
      <point x="97" y="69"/>
      <point x="132" y="91"/>
      <point x="136" y="111" type="qcurve" smooth="yes"/>
      <point x="155" y="201" type="line"/>
      <point x="91" y="201" type="line" smooth="yes"/>
      <point x="71" y="201"/>
      <point x="43" y="171"/>
      <point x="33" y="155" type="qcurve"/>
      <point x="20" y="155" type="line"/>
      <point x="57" y="325" type="line"/>
      <point x="70" y="325" type="line"/>
      <point x="72" y="309"/>
      <point x="88" y="279"/>
      <point x="108" y="279" type="qcurve" smooth="yes"/>
      <point x="172" y="279" type="line"/>
      <point x="210" y="460" type="line"/>
      <point x="146" y="460" type="line" smooth="yes"/>
      <point x="126" y="460"/>
      <point x="98" y="430"/>
      <point x="88" y="414" type="qcurve"/>
      <point x="75" y="414" type="line"/>
      <point x="112" y="584" type="line"/>
      <point x="125" y="584" type="line"/>
      <point x="127" y="568"/>
      <point x="143" y="538"/>
      <point x="163" y="538" type="qcurve" smooth="yes"/>
      <point x="227" y="538" type="line"/>
      <point x="239" y="594" type="line" smooth="yes"/>
      <point x="240" y="597"/>
      <point x="240" y="603" type="qcurve" smooth="yes"/>
      <point x="240" y="617"/>
      <point x="218" y="636"/>
      <point x="203" y="642" type="qcurve"/>
      <point x="206" y="655" type="line"/>
    </contour>
    <contour>
      <point x="439" y="279" type="line"/>
      <point x="477" y="460" type="line"/>
      <point x="288" y="460" type="line"/>
      <point x="250" y="279" type="line"/>
    </contour>
  </outline>
</glyph>
<glyph name="quotesingle" format="2">
  <advance width="225"/>
  <unicode hex="0027"/>
  <outline>
    <contour>
      <point x="86" y="532" type="line"/>
      <point x="62" y="539"/>
      <point x="25" y="575"/>
      <point x="25" y="602" type="qcurve" smooth="yes"/>
      <point x="25" y="619"/>
      <point x="41" y="647"/>
      <point x="67" y="666"/>
      <point x="99" y="676"/>
      <point x="115" y="676" type="qcurve" smooth="yes"/>
      <point x="131" y="676"/>
      <point x="163" y="666"/>
      <point x="190" y="646"/>
      <point x="207" y="619"/>
      <point x="207" y="601" type="qcurve" smooth="yes"/>
      <point x="207" y="579"/>
      <point x="193" y="532"/>
      <point x="169" y="489"/>
      <point x="135" y="453"/>
      <point x="116" y="442" type="qcurve"/>
      <point x="86" y="442" type="line"/>
    </contour>
  </outline>
</glyph>
<glyph name="parenleft" format="2">
  <advance width="373"/>
  <unicode hex="0028"/>
  <outline>
    <contour>
      <point x="131" y="-81" type="qcurve" smooth="yes"/>
      <point x="113" y="-79"/>
      <point x="78" y="-69"/>
      <point x="51" y="-51"/>
      <point x="34" y="-23"/>
      <point x="34" y="-2" type="qcurve" smooth="yes"/>
      <point x="34" y="698" type="line" smooth="yes"/>
      <point x="34" y="725"/>
      <point x="62" y="757"/>
      <point x="106" y="775"/>
      <point x="157" y="780"/>
      <point x="181" y="780" type="qcurve" smooth="yes"/>
      <point x="337" y="780" type="line"/>
      <point x="337" y="617" type="line"/>
      <point x="255" y="617" type="line"/>
      <point x="255" y="81" type="line"/>
      <point x="337" y="81" type="line"/>
      <point x="337" y="-84" type="line"/>
      <point x="181" y="-84" type="line" smooth="yes"/>
      <point x="156" y="-84"/>
    </contour>
  </outline>
</glyph>
<glyph name="asterisk" format="2">
  <advance width="686"/>
  <unicode hex="002A"/>
  <outline>
    <contour>
      <point x="573" y="175" type="line"/>
      <point x="436" y="246" type="line"/>
      <point x="436" y="81" type="line"/>
      <point x="268" y="81" type="line"/>
      <point x="268" y="251" type="line"/>
      <point x="122" y="175" type="line"/>
      <point x="44" y="325" type="line"/>
      <point x="166" y="388" type="line"/>
      <point x="44" y="452" type="line"/>
      <point x="121" y="600" type="line"/>
      <point x="268" y="523" type="line"/>
      <point x="268" y="678" type="line"/>
      <point x="436" y="678" type="line"/>
      <point x="436" y="528" type="line"/>
      <point x="574" y="600" type="line"/>
      <point x="651" y="452" type="line"/>
      <point x="529" y="388" type="line"/>
      <point x="651" y="325" type="line"/>
    </contour>
  </outline>
</glyph>
<glyph name="hyphen" format="2">
  <advance width="412"/>
  <unicode hex="002D"/>
  <outline>
    <contour>
      <point x="27" y="432" type="line"/>
      <point x="379" y="432" type="line"/>
      <point x="379" y="264" type="line"/>
      <point x="27" y="264" type="line"/>
    </contour>
  </outline>
</glyph>
<glyph name="period" format="2">
  <advance width="280"/>
  <unicode hex="002E"/>
  <outline>
    <contour>
      <point x="139" y="185" type="qcurve" smooth="yes"/>
      <point x="158" y="185"/>
      <point x="199" y="172"/>
      <point x="231" y="148"/>
      <point x="252" y="114"/>
      <point x="252" y="92" type="qcurve" smooth="yes"/>
      <point x="252" y="70"/>
      <point x="231" y="36"/>
      <point x="199" y="12"/>
      <point x="158" y="0"/>
      <point x="139" y="0" type="qcurve" smooth="yes"/>
      <point x="119" y="0"/>
      <point x="79" y="12"/>
      <point x="46" y="36"/>
      <point x="25" y="70"/>
      <point x="25" y="92" type="qcurve" smooth="yes"/>
      <point x="25" y="114"/>
      <point x="46" y="149"/>
      <point x="79" y="173"/>
      <point x="119" y="185"/>
    </contour>
  </outline>
</glyph>
<glyph name="slash" format="2">
  <advance width="444"/>
  <unicode hex="002F"/>
  <outline>
    <contour>
      <point x="409" y="678" type="line"/>
      <point x="194" y="0" type="line"/>
      <point x="38" y="0" type="line"/>
      <point x="253" y="678" type="line"/>
    </contour>
  </outline>
</glyph>
<glyph name="three" format="2">
  <advance width="636"/>
  <unicode hex="0033"/>
  <outline>
    <contour>
      <point x="290" y="247" type="line"/>
      <point x="290" y="234" type="line"/>
      <point x="273" y="228"/>
      <point x="244" y="205"/>
      <point x="244" y="185" type="qcurve"/>
      <point x="359" y="185" type="line"/>
      <point x="359" y="278" type="line"/>
      <point x="244" y="278" type="line"/>
      <point x="244" y="401" type="line"/>
      <point x="359" y="401" type="line"/>
      <point x="359" y="494" type="line"/>
      <point x="244" y="494" type="line"/>
      <point x="244" y="474"/>
      <point x="273" y="451"/>
      <point x="290" y="445" type="qcurve"/>
      <point x="290" y="432" type="line"/>
      <point x="47" y="432" type="line"/>
      <point x="47" y="586" type="line" smooth="yes"/>
      <point x="47" y="616"/>
      <point x="77" y="653"/>
      <point x="122" y="673"/>
      <point x="175" y="679"/>
      <point x="199" y="679" type="qcurve" smooth="yes"/>
      <point x="435" y="679" type="line" smooth="yes"/>
      <point x="459" y="679"/>
      <point x="512" y="673"/>
      <point x="557" y="653"/>
      <point x="586" y="616"/>
      <point x="586" y="586" type="qcurve" smooth="yes"/>
      <point x="586" y="432" type="line" smooth="yes"/>
      <point x="586" y="379"/>
      <point x="521" y="339"/>
      <point x="473" y="339" type="qcurve"/>
      <point x="497" y="339"/>
      <point x="538" y="330"/>
      <point x="569" y="309"/>
      <point x="586" y="274"/>
      <point x="586" y="247" type="qcurve" smooth="yes"/>
      <point x="586" y="93" type="line" smooth="yes"/>
      <point x="586" y="63"/>
      <point x="557" y="26"/>
      <point x="512" y="6"/>
      <point x="459" y="0"/>
      <point x="435" y="0" type="qcurve" smooth="yes"/>
      <point x="199" y="0" type="line" smooth="yes"/>
      <point x="175" y="0"/>
      <point x="122" y="6"/>
      <point x="77" y="26"/>
      <point x="47" y="63"/>
      <point x="47" y="93" type="qcurve" smooth="yes"/>
      <point x="47" y="247" type="line"/>
    </contour>
  </outline>
</glyph>
<glyph name="four" format="2">
  <advance width="675"/>
  <unicode hex="0034"/>
  <outline>
    <contour>
      <point x="659" y="346" type="line"/>
      <point x="659" y="185" type="line"/>
      <point x="643" y="185" type="line"/>
      <point x="637" y="195"/>
      <point x="632" y="210"/>
      <point x="625" y="218"/>
      <point x="612" y="222"/>
      <point x="598" y="222" type="qcurve" smooth="yes"/>
      <point x="585" y="222" type="line"/>
      <point x="585" y="62" type="line" smooth="yes"/>
      <point x="585" y="43"/>
      <point x="615" y="20"/>
      <point x="631" y="14" type="qcurve"/>
      <point x="631" y="0" type="line"/>
      <point x="326" y="0" type="line"/>
      <point x="326" y="14" type="line"/>
      <point x="342" y="20"/>
      <point x="372" y="42"/>
      <point x="372" y="62" type="qcurve" smooth="yes"/>
      <point x="372" y="222" type="line"/>
      <point x="20" y="222" type="line"/>
      <point x="23" y="232"/>
      <point x="39" y="282"/>
      <point x="60" y="346"/>
      <point x="82" y="417"/>
      <point x="101" y="479"/>
      <point x="113" y="524"/>
      <point x="113" y="530" type="qcurve" smooth="yes"/>
      <point x="113" y="550"/>
      <point x="84" y="576"/>
      <point x="68" y="584" type="qcurve"/>
      <point x="68" y="597" type="line"/>
      <point x="348" y="597" type="line"/>
      <point x="270" y="346" type="line"/>
      <point x="372" y="346" type="line"/>
      <point x="372" y="618" type="line" smooth="yes"/>
      <point x="372" y="638"/>
      <point x="342" y="660"/>
      <point x="326" y="666" type="qcurve"/>
      <point x="326" y="679" type="line"/>
      <point x="631" y="679" type="line"/>
      <point x="631" y="666" type="line"/>
      <point x="616" y="660"/>
      <point x="585" y="637"/>
      <point x="585" y="618" type="qcurve" smooth="yes"/>
      <point x="585" y="346" type="line"/>
    </contour>
  </outline>
</glyph>
<glyph name="five" format="2">
  <advance width="667"/>
  <unicode hex="0035"/>
  <outline>
    <contour>
      <point x="620" y="678" type="line"/>
      <point x="620" y="456" type="line"/>
      <point x="604" y="456" type="line"/>
      <point x="594" y="473"/>
      <point x="565" y="493"/>
      <point x="545" y="493" type="qcurve" smooth="yes"/>
      <point x="279" y="493" type="line"/>
      <point x="279" y="401" type="line"/>
      <point x="393" y="401" type="line" smooth="yes"/>
      <point x="419" y="401"/>
      <point x="463" y="402"/>
      <point x="468" y="402" type="qcurve" smooth="yes"/>
      <point x="492" y="402"/>
      <point x="545" y="396"/>
      <point x="590" y="376"/>
      <point x="620" y="339"/>
      <point x="620" y="308" type="qcurve" smooth="yes"/>
      <point x="620" y="92" type="line" smooth="yes"/>
      <point x="620" y="62"/>
      <point x="591" y="25"/>
      <point x="546" y="6"/>
      <point x="493" y="0"/>
      <point x="469" y="0" type="qcurve" smooth="yes"/>
      <point x="203" y="0" type="line" smooth="yes"/>
      <point x="179" y="0"/>
      <point x="126" y="6"/>
      <point x="81" y="25"/>
      <point x="52" y="62"/>
      <point x="52" y="92" type="qcurve" smooth="yes"/>
      <point x="52" y="246" type="line"/>
      <point x="325" y="246" type="line"/>
      <point x="325" y="233" type="line"/>
      <point x="309" y="228"/>
      <point x="279" y="205"/>
      <point x="279" y="185" type="qcurve"/>
      <point x="393" y="185" type="line"/>
      <point x="393" y="277" type="line"/>
      <point x="52" y="277" type="line"/>
      <point x="52" y="678" type="line"/>
    </contour>
  </outline>
</glyph>
<glyph name="seven" format="2">
  <advance width="612"/>
  <unicode hex="0037"/>
  <outline>
    <contour>
      <point x="34" y="679" type="line"/>
      <point x="577" y="679" type="line"/>
      <point x="577" y="494" type="line"/>
      <point x="345" y="0" type="line"/>
      <point x="92" y="0" type="line"/>
      <point x="325" y="494" type="line"/>
      <point x="110" y="494" type="line" smooth="yes"/>
      <point x="89" y="494"/>
      <point x="61" y="473"/>
      <point x="50" y="456" type="qcurve"/>
      <point x="34" y="456" type="line"/>
    </contour>
  </outline>
</glyph>
<glyph name="eight" format="2">
  <advance width="644"/>
  <unicode hex="0038"/>
  <outline>
    <contour>
      <point x="46" y="247" type="line" smooth="yes"/>
      <point x="46" y="273"/>
      <point x="64" y="309"/>
      <point x="95" y="330"/>
      <point x="136" y="339"/>
      <point x="160" y="339" type="qcurve"/>
      <point x="136" y="339"/>
      <point x="94" y="348"/>
      <point x="64" y="370"/>
      <point x="46" y="405"/>
      <point x="46" y="432" type="qcurve" smooth="yes"/>
      <point x="46" y="586" type="line" smooth="yes"/>
      <point x="46" y="616"/>
      <point x="76" y="653"/>
      <point x="121" y="673"/>
      <point x="174" y="679"/>
      <point x="198" y="679" type="qcurve" smooth="yes"/>
      <point x="450" y="679" type="line" smooth="yes"/>
      <point x="474" y="679"/>
      <point x="527" y="673"/>
      <point x="572" y="653"/>
      <point x="601" y="616"/>
      <point x="601" y="586" type="qcurve" smooth="yes"/>
      <point x="601" y="432" type="line" smooth="yes"/>
      <point x="601" y="406"/>
      <point x="583" y="370"/>
      <point x="553" y="348"/>
      <point x="512" y="339"/>
      <point x="488" y="339" type="qcurve"/>
      <point x="512" y="339"/>
      <point x="553" y="330"/>
      <point x="583" y="309"/>
      <point x="601" y="273"/>
      <point x="601" y="247" type="qcurve" smooth="yes"/>
      <point x="601" y="92" type="line" smooth="yes"/>
      <point x="601" y="62"/>
      <point x="571" y="25"/>
      <point x="526" y="6"/>
      <point x="473" y="0"/>
      <point x="450" y="0" type="qcurve" smooth="yes"/>
      <point x="198" y="0" type="line" smooth="yes"/>
      <point x="175" y="0"/>
      <point x="121" y="6"/>
      <point x="76" y="25"/>
      <point x="46" y="62"/>
      <point x="46" y="92" type="qcurve" smooth="yes"/>
    </contour>
    <contour>
      <point x="374" y="401" type="line"/>
      <point x="374" y="494" type="line"/>
      <point x="274" y="494" type="line"/>
      <point x="274" y="401" type="line"/>
    </contour>
    <contour>
      <point x="274" y="278" type="line"/>
      <point x="274" y="185" type="line"/>
      <point x="374" y="185" type="line"/>
      <point x="374" y="278" type="line"/>
    </contour>
  </outline>
</glyph>
<glyph name="nine" format="2">
  <advance width="657"/>
  <unicode hex="0039"/>
  <outline>
    <contour>
      <point x="320" y="234" type="line"/>
      <point x="305" y="228"/>
      <point x="274" y="205"/>
      <point x="274" y="186" type="qcurve"/>
      <point x="386" y="186" type="line"/>
      <point x="386" y="278" type="line"/>
      <point x="274" y="278" type="line" smooth="yes"/>
      <point x="248" y="278"/>
      <point x="205" y="277"/>
      <point x="200" y="277" type="qcurve" smooth="yes"/>
      <point x="177" y="277"/>
      <point x="124" y="283"/>
      <point x="78" y="303"/>
      <point x="47" y="340"/>
      <point x="47" y="370" type="qcurve" smooth="yes"/>
      <point x="47" y="587" type="line" smooth="yes"/>
      <point x="47" y="617"/>
      <point x="77" y="653"/>
      <point x="122" y="673"/>
      <point x="175" y="679"/>
      <point x="198" y="679" type="qcurve" smooth="yes"/>
      <point x="461" y="679" type="line" smooth="yes"/>
      <point x="484" y="679"/>
      <point x="538" y="673"/>
      <point x="583" y="654"/>
      <point x="613" y="617"/>
      <point x="613" y="587" type="qcurve" smooth="yes"/>
      <point x="613" y="93" type="line" smooth="yes"/>
      <point x="613" y="63"/>
      <point x="583" y="26"/>
      <point x="538" y="6"/>
      <point x="485" y="0"/>
      <point x="461" y="0" type="qcurve" smooth="yes"/>
      <point x="198" y="0" type="line" smooth="yes"/>
      <point x="174" y="0"/>
      <point x="121" y="6"/>
      <point x="76" y="26"/>
      <point x="47" y="63"/>
      <point x="47" y="93" type="qcurve" smooth="yes"/>
      <point x="47" y="247" type="line"/>
      <point x="320" y="247" type="line"/>
    </contour>
    <contour>
      <point x="274" y="401" type="line"/>
      <point x="386" y="401" type="line"/>
      <point x="386" y="494" type="line"/>
      <point x="274" y="494" type="line"/>
    </contour>
  </outline>
</glyph>
<glyph name="greater" format="2">
  <advance width="400"/>
  <unicode hex="003E"/>
  <outline>
    <contour>
      <point x="108" y="115" type="line"/>
      <point x="25" y="211" type="line"/>
      <point x="178" y="344" type="line"/>
      <point x="26" y="476" type="line"/>
      <point x="109" y="572" type="line"/>
      <point x="373" y="344" type="line"/>
    </contour>
  </outline>
</glyph>
<glyph name="F" format="2">
  <advance width="659"/>
  <unicode hex="0046"/>
  <outline>
    <contour>
      <point x="18" y="0" type="line"/>
      <point x="18" y="13" type="line"/>
      <point x="35" y="19"/>
      <point x="64" y="42"/>
      <point x="64" y="62" type="qcurve" smooth="yes"/>
      <point x="64" y="617" type="line" smooth="yes"/>
      <point x="64" y="637"/>
      <point x="35" y="660"/>
      <point x="18" y="666" type="qcurve"/>
      <point x="18" y="679" type="line"/>
      <point x="632" y="679" type="line"/>
      <point x="632" y="456" type="line"/>
      <point x="616" y="456" type="line"/>
      <point x="606" y="473"/>
      <point x="576" y="494"/>
      <point x="556" y="494" type="qcurve" smooth="yes"/>
      <point x="291" y="494" type="line"/>
      <point x="291" y="401" type="line"/>
      <point x="443" y="401" type="line" smooth="yes"/>
      <point x="463" y="401"/>
      <point x="492" y="422"/>
      <point x="502" y="439" type="qcurve"/>
      <point x="518" y="439" type="line"/>
      <point x="518" y="240" type="line"/>
      <point x="502" y="240" type="line"/>
      <point x="492" y="257"/>
      <point x="463" y="278"/>
      <point x="443" y="278" type="qcurve" smooth="yes"/>
      <point x="291" y="278" type="line"/>
      <point x="291" y="62" type="line" smooth="yes"/>
      <point x="291" y="42"/>
      <point x="321" y="19"/>
      <point x="337" y="13" type="qcurve"/>
      <point x="337" y="0" type="line"/>
    </contour>
  </outline>
</glyph>
<glyph name="M" format="2">
  <advance width="851"/>
  <unicode hex="004D"/>
  <outline>
    <contour>
      <point x="787" y="62" type="line" smooth="yes"/>
      <point x="787" y="42"/>
      <point x="816" y="19"/>
      <point x="833" y="13" type="qcurve"/>
      <point x="833" y="0" type="line"/>
      <point x="513" y="0" type="line"/>
      <point x="513" y="13" type="line"/>
      <point x="530" y="19"/>
      <point x="559" y="42"/>
      <point x="559" y="62" type="qcurve" smooth="yes"/>
      <point x="559" y="359" type="line"/>
      <point x="427" y="162" type="line"/>
      <point x="394" y="213"/>
      <point x="328" y="310"/>
      <point x="294" y="359" type="qcurve"/>
      <point x="294" y="62" type="line" smooth="yes"/>
      <point x="294" y="42"/>
      <point x="325" y="19"/>
      <point x="341" y="13" type="qcurve"/>
      <point x="341" y="0" type="line"/>
      <point x="21" y="0" type="line"/>
      <point x="21" y="13" type="line"/>
      <point x="38" y="19"/>
      <point x="67" y="42"/>
      <point x="67" y="62" type="qcurve" smooth="yes"/>
      <point x="67" y="617" type="line" smooth="yes"/>
      <point x="67" y="637"/>
      <point x="38" y="660"/>
      <point x="21" y="666" type="qcurve"/>
      <point x="21" y="679" type="line"/>
      <point x="341" y="679" type="line"/>
      <point x="341" y="666" type="line"/>
      <point x="325" y="660"/>
      <point x="294" y="637"/>
      <point x="294" y="617" type="qcurve"/>
      <point x="427" y="419" type="line"/>
      <point x="559" y="617" type="line"/>
      <point x="559" y="637"/>
      <point x="530" y="660"/>
      <point x="513" y="666" type="qcurve"/>
      <point x="513" y="679" type="line"/>
      <point x="833" y="679" type="line"/>
      <point x="833" y="666" type="line"/>
      <point x="816" y="660"/>
      <point x="787" y="637"/>
      <point x="787" y="617" type="qcurve" smooth="yes"/>
    </contour>
  </outline>
</glyph>
<glyph name="N" format="2">
  <advance width="727"/>
  <unicode hex="004E"/>
  <outline>
    <contour>
      <point x="17" y="13" type="line"/>
      <point x="34" y="19"/>
      <point x="63" y="42"/>
      <point x="63" y="62" type="qcurve" smooth="yes"/>
      <point x="63" y="617" type="line" smooth="yes"/>
      <point x="63" y="637"/>
      <point x="34" y="660"/>
      <point x="17" y="666" type="qcurve"/>
      <point x="17" y="679" type="line"/>
      <point x="336" y="679" type="line"/>
      <point x="336" y="666" type="line"/>
      <point x="320" y="660"/>
      <point x="290" y="637"/>
      <point x="290" y="617" type="qcurve" smooth="yes"/>
      <point x="290" y="494" type="line"/>
      <point x="442" y="344" type="line"/>
      <point x="442" y="617" type="line" smooth="yes"/>
      <point x="442" y="637"/>
      <point x="413" y="660"/>
      <point x="396" y="666" type="qcurve"/>
      <point x="396" y="679" type="line"/>
      <point x="715" y="679" type="line"/>
      <point x="715" y="666" type="line"/>
      <point x="698" y="660"/>
      <point x="669" y="637"/>
      <point x="669" y="617" type="qcurve" smooth="yes"/>
      <point x="669" y="62" type="line" smooth="yes"/>
      <point x="669" y="42"/>
      <point x="698" y="19"/>
      <point x="715" y="13" type="qcurve"/>
      <point x="715" y="0" type="line"/>
      <point x="396" y="0" type="line"/>
      <point x="396" y="13" type="line"/>
      <point x="413" y="19"/>
      <point x="442" y="42"/>
      <point x="442" y="62" type="qcurve" smooth="yes"/>
      <point x="442" y="150" type="line"/>
      <point x="290" y="300" type="line"/>
      <point x="290" y="62" type="line" smooth="yes"/>
      <point x="290" y="42"/>
      <point x="320" y="19"/>
      <point x="336" y="13" type="qcurve"/>
      <point x="336" y="0" type="line"/>
      <point x="17" y="0" type="line"/>
    </contour>
  </outline>
</glyph>
<glyph name="Z" format="2">
  <advance width="683"/>
  <unicode hex="005A"/>
  <outline>
    <contour>
      <point x="642" y="0" type="line"/>
      <point x="36" y="0" type="line"/>
      <point x="381" y="494" type="line"/>
      <point x="111" y="494" type="line" smooth="yes"/>
      <point x="91" y="494"/>
      <point x="62" y="473"/>
      <point x="52" y="456" type="qcurve"/>
      <point x="36" y="456" type="line"/>
      <point x="36" y="679" type="line"/>
      <point x="642" y="679" type="line"/>
      <point x="642" y="494" type="line"/>
      <point x="426" y="185" type="line"/>
      <point x="566" y="185" type="line" smooth="yes"/>
      <point x="586" y="185"/>
      <point x="615" y="205"/>
      <point x="626" y="222" type="qcurve"/>
      <point x="642" y="222" type="line"/>
    </contour>
  </outline>
</glyph>
<glyph name="underscore" format="2">
  <advance width="749"/>
  <unicode hex="005F"/>
  <outline>
    <contour>
      <point x="44" y="-51" type="line"/>
      <point x="713" y="-51" type="line"/>
      <point x="713" y="-194" type="line"/>
      <point x="44" y="-194" type="line"/>
    </contour>
  </outline>
</glyph>
<glyph name="grave" format="2">
  <advance width="443"/>
  <unicode hex="0060"/>
  <outline>
    <contour>
      <point x="104" y="884" type="line"/>
      <point x="282" y="884" type="line"/>
      <point x="390" y="716" type="line"/>
      <point x="207" y="716" type="line"/>
    </contour>
  </outline>
</glyph>
<glyph name="d" format="2">
  <advance width="700"/>
  <unicode hex="0064"/>
  <outline>
    <contour>
      <point x="17" y="13" type="line"/>
      <point x="32" y="19"/>
      <point x="63" y="42"/>
      <point x="63" y="61" type="qcurve" smooth="yes"/>
      <point x="63" y="617" type="line" smooth="yes"/>
      <point x="63" y="636"/>
      <point x="33" y="659"/>
      <point x="17" y="665" type="qcurve"/>
      <point x="17" y="678" type="line"/>
      <point x="489" y="678" type="line" smooth="yes"/>
      <point x="513" y="678"/>
      <point x="566" y="672"/>
      <point x="611" y="653"/>
      <point x="641" y="616"/>
      <point x="641" y="586" type="qcurve" smooth="yes"/>
      <point x="641" y="92" type="line" smooth="yes"/>
      <point x="641" y="62"/>
      <point x="611" y="25"/>
      <point x="566" y="6"/>
      <point x="513" y="0"/>
      <point x="489" y="0" type="qcurve" smooth="yes"/>
      <point x="17" y="0" type="line"/>
    </contour>
    <contour>
      <point x="414" y="185" type="line"/>
      <point x="414" y="493" type="line"/>
      <point x="290" y="493" type="line"/>
      <point x="290" y="185" type="line"/>
    </contour>
  </outline>
</glyph>
<glyph name="l" format="2">
  <advance width="574"/>
  <unicode hex="006C"/>
  <outline>
    <contour>
      <point x="540" y="222" type="line"/>
      <point x="540" y="0" type="line"/>
      <point x="17" y="0" type="line"/>
      <point x="17" y="13" type="line"/>
      <point x="32" y="19"/>
      <point x="63" y="42"/>
      <point x="63" y="61" type="qcurve" smooth="yes"/>
      <point x="63" y="617" type="line" smooth="yes"/>
      <point x="63" y="636"/>
      <point x="33" y="660"/>
      <point x="17" y="666" type="qcurve"/>
      <point x="17" y="679" type="line"/>
      <point x="336" y="679" type="line"/>
      <point x="336" y="666" type="line"/>
      <point x="320" y="660"/>
      <point x="290" y="637"/>
      <point x="290" y="617" type="qcurve" smooth="yes"/>
      <point x="290" y="185" type="line"/>
      <point x="464" y="185" type="line" smooth="yes"/>
      <point x="484" y="185"/>
      <point x="513" y="205"/>
      <point x="524" y="222" type="qcurve"/>
    </contour>
  </outline>
</glyph>
<glyph name="o" format="2">
  <advance width="700"/>
  <unicode hex="006F"/>
  <outline>
    <contour>
      <point x="654" y="92" type="line" smooth="yes"/>
      <point x="654" y="62"/>
      <point x="624" y="25"/>
      <point x="579" y="6"/>
      <point x="526" y="0"/>
      <point x="502" y="0" type="qcurve" smooth="yes"/>
      <point x="199" y="0" type="line" smooth="yes"/>
      <point x="175" y="0"/>
      <point x="122" y="6"/>
      <point x="77" y="25"/>
      <point x="48" y="62"/>
      <point x="48" y="92" type="qcurve" smooth="yes"/>
      <point x="48" y="586" type="line" smooth="yes"/>
      <point x="48" y="616"/>
      <point x="77" y="653"/>
      <point x="122" y="672"/>
      <point x="175" y="678"/>
      <point x="199" y="678" type="qcurve" smooth="yes"/>
      <point x="502" y="678" type="line" smooth="yes"/>
      <point x="526" y="678"/>
      <point x="579" y="672"/>
      <point x="624" y="653"/>
      <point x="654" y="616"/>
      <point x="654" y="586" type="qcurve" smooth="yes"/>
    </contour>
    <contour>
      <point x="426" y="185" type="line"/>
      <point x="426" y="493" type="line"/>
      <point x="275" y="493" type="line"/>
      <point x="275" y="185" type="line"/>
    </contour>
  </outline>
</glyph>
<glyph name="q" format="2">
  <advance width="703"/>
  <unicode hex="0071"/>
  <outline>
    <contour>
      <point x="513" y="-86" type="line"/>
      <point x="193" y="-86" type="line"/>
      <point x="193" y="-73" type="line"/>
      <point x="209" y="-67"/>
      <point x="228" y="-55"/>
      <point x="237" y="-38"/>
      <point x="239" y="-16"/>
      <point x="239" y="0" type="qcurve"/>
      <point x="213" y="0"/>
      <point x="148" y="1"/>
      <point x="90" y="18"/>
      <point x="50" y="56"/>
      <point x="50" y="93" type="qcurve" smooth="yes"/>
      <point x="50" y="586" type="line" smooth="yes"/>
      <point x="50" y="616"/>
      <point x="79" y="653"/>
      <point x="124" y="673"/>
      <point x="177" y="679"/>
      <point x="201" y="679" type="qcurve" smooth="yes"/>
      <point x="504" y="679" type="line" smooth="yes"/>
      <point x="528" y="679"/>
      <point x="581" y="673"/>
      <point x="626" y="653"/>
      <point x="656" y="616"/>
      <point x="656" y="586" type="qcurve" smooth="yes"/>
      <point x="656" y="93" type="line" smooth="yes"/>
      <point x="656" y="57"/>
      <point x="616" y="18"/>
      <point x="557" y="2"/>
      <point x="491" y="0"/>
      <point x="466" y="0" type="qcurve"/>
      <point x="466" y="-24" type="line" smooth="yes"/>
      <point x="466" y="-44"/>
      <point x="497" y="-67"/>
      <point x="513" y="-73" type="qcurve"/>
    </contour>
    <contour>
      <point x="429" y="185" type="line"/>
      <point x="429" y="494" type="line"/>
      <point x="277" y="494" type="line"/>
      <point x="277" y="185" type="line"/>
    </contour>
  </outline>
</glyph>
<glyph name="braceleft" format="2">
  <advance width="446"/>
  <unicode hex="007B"/>
  <outline>
    <contour>
      <point x="485" y="-35" type="line"/>
      <point x="485" y="-220" type="line"/>
      <point x="328" y="-220" type="line" smooth="yes"/>
      <point x="304" y="-220"/>
      <point x="251" y="-214"/>
      <point x="206" y="-195"/>
      <point x="177" y="-158"/>
      <point x="177" y="-128" type="qcurve" smooth="yes"/>
      <point x="177" y="193" type="line" smooth="yes"/>
      <point x="177" y="223"/>
      <point x="148" y="260"/>
      <point x="103" y="279"/>
      <point x="50" y="285"/>
      <point x="26" y="285" type="qcurve"/>
      <point x="26" y="367" type="line"/>
      <point x="50" y="367"/>
      <point x="103" y="373"/>
      <point x="148" y="392"/>
      <point x="177" y="429"/>
      <point x="177" y="459" type="qcurve" smooth="yes"/>
      <point x="177" y="803" type="line" smooth="yes"/>
      <point x="177" y="833"/>
      <point x="205" y="870"/>
      <point x="248" y="889"/>
      <point x="300" y="895"/>
      <point x="324" y="895" type="qcurve" smooth="yes"/>
      <point x="485" y="895" type="line"/>
      <point x="485" y="710" type="line"/>
      <point x="400" y="710" type="line"/>
      <point x="400" y="-35" type="line"/>
    </contour>
  </outline>
</glyph>
<glyph name="bar" format="2">
  <advance width="290"/>
  <unicode hex="007C"/>
  <outline>
    <contour>
      <point x="233" y="772" type="line"/>
      <point x="233" y="-91" type="line"/>
      <point x="51" y="-91" type="line"/>
      <point x="51" y="772" type="line"/>
    </contour>
  </outline>
</glyph>
<glyph name="braceright" format="2">
  <advance width="474"/>
  <unicode hex="007D"/>
  <outline>
    <contour>
      <point x="-13" y="895" type="line"/>
      <point x="148" y="895" type="line" smooth="yes"/>
      <point x="172" y="895"/>
      <point x="224" y="889"/>
      <point x="267" y="870"/>
      <point x="295" y="833"/>
      <point x="295" y="803" type="qcurve" smooth="yes"/>
      <point x="295" y="459" type="line" smooth="yes"/>
      <point x="295" y="429"/>
      <point x="324" y="392"/>
      <point x="369" y="373"/>
      <point x="422" y="367"/>
      <point x="446" y="367" type="qcurve"/>
      <point x="446" y="285" type="line"/>
      <point x="422" y="285"/>
      <point x="369" y="279"/>
      <point x="324" y="260"/>
      <point x="295" y="223"/>
      <point x="295" y="193" type="qcurve" smooth="yes"/>
      <point x="295" y="-128" type="line" smooth="yes"/>
      <point x="295" y="-158"/>
      <point x="266" y="-195"/>
      <point x="221" y="-214"/>
      <point x="168" y="-220"/>
      <point x="144" y="-220" type="qcurve" smooth="yes"/>
      <point x="-13" y="-220" type="line"/>
      <point x="-13" y="-35" type="line"/>
      <point x="72" y="-35" type="line"/>
      <point x="72" y="710" type="line"/>
      <point x="-13" y="710" type="line"/>
    </contour>
  </outline>
</glyph>
<glyph name="exclamdown" format="2">
  <advance width="355"/>
  <unicode hex="00A1"/>
  <outline>
    <contour>
      <point x="285" y="586" type="qcurve" smooth="yes"/>
      <point x="285" y="564"/>
      <point x="264" y="530"/>
      <point x="232" y="506"/>
      <point x="191" y="493"/>
      <point x="172" y="493" type="qcurve" smooth="yes"/>
      <point x="152" y="493"/>
      <point x="112" y="505"/>
      <point x="79" y="529"/>
      <point x="58" y="563"/>
      <point x="58" y="586" type="qcurve" smooth="yes"/>
      <point x="58" y="608"/>
      <point x="79" y="643"/>
      <point x="112" y="667"/>
      <point x="152" y="679"/>
      <point x="172" y="679" type="qcurve" smooth="yes"/>
      <point x="191" y="679"/>
      <point x="232" y="666"/>
      <point x="264" y="642"/>
      <point x="285" y="608"/>
    </contour>
    <contour>
      <point x="331" y="449" type="line"/>
      <point x="315" y="443"/>
      <point x="285" y="420"/>
      <point x="285" y="401" type="qcurve" smooth="yes"/>
      <point x="285" y="61" type="line" smooth="yes"/>
      <point x="285" y="42"/>
      <point x="316" y="19"/>
      <point x="331" y="13" type="qcurve"/>
      <point x="331" y="0" type="line"/>
      <point x="12" y="0" type="line"/>
      <point x="12" y="13" type="line"/>
      <point x="27" y="19"/>
      <point x="58" y="42"/>
      <point x="58" y="61" type="qcurve" smooth="yes"/>
      <point x="58" y="401" type="line" smooth="yes"/>
      <point x="58" y="420"/>
      <point x="28" y="443"/>
      <point x="12" y="449" type="qcurve"/>
      <point x="12" y="463" type="line"/>
      <point x="331" y="463" type="line"/>
    </contour>
  </outline>
</glyph>
<glyph name="copyright" format="2">
  <advance width="537"/>
  <unicode hex="00A9"/>
  <outline>
    <contour>
      <point x="270" y="657" type="qcurve" smooth="yes"/>
      <point x="318" y="657"/>
      <point x="404" y="620"/>
      <point x="467" y="556"/>
      <point x="504" y="470"/>
      <point x="504" y="422" type="qcurve" smooth="yes"/>
      <point x="504" y="372"/>
      <point x="467" y="286"/>
      <point x="404" y="223"/>
      <point x="318" y="186"/>
      <point x="270" y="186" type="qcurve" smooth="yes"/>
      <point x="222" y="186"/>
      <point x="136" y="223"/>
      <point x="72" y="286"/>
      <point x="35" y="372"/>
      <point x="35" y="422" type="qcurve" smooth="yes"/>
      <point x="35" y="470"/>
      <point x="72" y="556"/>
      <point x="136" y="620"/>
      <point x="222" y="657"/>
    </contour>
    <contour>
      <point x="268" y="241" type="qcurve" smooth="yes"/>
      <point x="305" y="241"/>
      <point x="370" y="269"/>
      <point x="419" y="317"/>
      <point x="447" y="381"/>
      <point x="447" y="418" type="qcurve" smooth="yes"/>
      <point x="447" y="455"/>
      <point x="419" y="520"/>
      <point x="370" y="569"/>
      <point x="305" y="597"/>
      <point x="268" y="597" type="qcurve" smooth="yes"/>
      <point x="231" y="597"/>
      <point x="167" y="569"/>
      <point x="119" y="520"/>
      <point x="91" y="455"/>
      <point x="91" y="418" type="qcurve" smooth="yes"/>
      <point x="91" y="381"/>
      <point x="119" y="317"/>
      <point x="167" y="269"/>
      <point x="231" y="241"/>
    </contour>
    <contour>
      <point x="275" y="565" type="qcurve" smooth="yes"/>
      <point x="312" y="565"/>
      <point x="375" y="530"/>
      <point x="395" y="501" type="qcurve"/>
      <point x="324" y="443" type="line"/>
      <point x="316" y="454"/>
      <point x="292" y="469"/>
      <point x="278" y="469" type="qcurve" smooth="yes"/>
      <point x="255" y="469"/>
      <point x="223" y="438"/>
      <point x="223" y="415" type="qcurve" smooth="yes"/>
      <point x="223" y="392"/>
      <point x="255" y="361"/>
      <point x="278" y="361" type="qcurve" smooth="yes"/>
      <point x="298" y="361"/>
      <point x="315" y="376" type="qcurve"/>
      <point x="379" y="317" type="line"/>
      <point x="359" y="296"/>
      <point x="306" y="271"/>
      <point x="275" y="271" type="qcurve" smooth="yes"/>
      <point x="244" y="271"/>
      <point x="190" y="294"/>
      <point x="150" y="335"/>
      <point x="127" y="388"/>
      <point x="127" y="418" type="qcurve" smooth="yes"/>
      <point x="127" y="448"/>
      <point x="150" y="502"/>
      <point x="190" y="542"/>
      <point x="244" y="565"/>
    </contour>
  </outline>
</glyph>
<glyph name="ordfeminine" format="2">
  <advance width="400"/>
  <unicode hex="00AA"/>
  <outline>
    <contour>
      <point x="169" y="570" type="line"/>
      <point x="169" y="559"/>
      <point x="187" y="546"/>
      <point x="197" y="542" type="qcurve"/>
      <point x="197" y="535" type="line"/>
      <point x="35" y="535" type="line"/>
      <point x="35" y="623" type="line" smooth="yes"/>
      <point x="35" y="641"/>
      <point x="53" y="662"/>
      <point x="80" y="673"/>
      <point x="113" y="676"/>
      <point x="127" y="676" type="qcurve" smooth="yes"/>
      <point x="280" y="676" type="line" smooth="yes"/>
      <point x="294" y="676"/>
      <point x="326" y="673"/>
      <point x="353" y="662"/>
      <point x="371" y="641"/>
      <point x="371" y="623" type="qcurve" smooth="yes"/>
      <point x="371" y="340" type="line" smooth="yes"/>
      <point x="371" y="323"/>
      <point x="353" y="302"/>
      <point x="326" y="291"/>
      <point x="294" y="288"/>
      <point x="280" y="288" type="qcurve" smooth="yes"/>
      <point x="126" y="288" type="line" smooth="yes"/>
      <point x="111" y="288"/>
      <point x="79" y="291"/>
      <point x="53" y="302"/>
      <point x="35" y="323"/>
      <point x="35" y="340" type="qcurve" smooth="yes"/>
      <point x="35" y="464" type="line" smooth="yes"/>
      <point x="35" y="481"/>
      <point x="53" y="502"/>
      <point x="80" y="514"/>
      <point x="112" y="518"/>
      <point x="127" y="518" type="qcurve"/>
      <point x="129" y="518"/>
      <point x="153" y="517"/>
      <point x="169" y="517" type="qcurve" smooth="yes"/>
      <point x="234" y="517" type="line"/>
      <point x="234" y="570" type="line"/>
    </contour>
    <contour>
      <point x="238" y="444" type="line"/>
      <point x="169" y="444" type="line"/>
      <point x="169" y="393" type="line"/>
      <point x="238" y="393" type="line"/>
    </contour>
  </outline>
</glyph>
<glyph name="registered" format="2">
  <advance width="478"/>
  <unicode hex="00AE"/>
  <outline>
    <contour>
      <point x="241" y="658" type="qcurve" smooth="yes"/>
      <point x="286" y="658"/>
      <point x="364" y="624"/>
      <point x="423" y="565"/>
      <point x="457" y="487"/>
      <point x="457" y="442" type="qcurve" smooth="yes"/>
      <point x="457" y="397"/>
      <point x="423" y="318"/>
      <point x="364" y="260"/>
      <point x="286" y="226"/>
      <point x="241" y="226" type="qcurve" smooth="yes"/>
      <point x="196" y="226"/>
      <point x="117" y="260"/>
      <point x="58" y="318"/>
      <point x="24" y="397"/>
      <point x="24" y="442" type="qcurve" smooth="yes"/>
      <point x="24" y="487"/>
      <point x="58" y="565"/>
      <point x="117" y="624"/>
      <point x="196" y="658"/>
    </contour>
    <contour>
      <point x="239" y="276" type="qcurve" smooth="yes"/>
      <point x="273" y="276"/>
      <point x="332" y="302"/>
      <point x="377" y="346"/>
      <point x="403" y="405"/>
      <point x="403" y="439" type="qcurve" smooth="yes"/>
      <point x="403" y="473"/>
      <point x="377" y="532"/>
      <point x="332" y="577"/>
      <point x="273" y="603"/>
      <point x="239" y="603" type="qcurve" smooth="yes"/>
      <point x="204" y="603"/>
      <point x="145" y="577"/>
      <point x="101" y="532"/>
      <point x="76" y="473"/>
      <point x="76" y="439" type="qcurve" smooth="yes"/>
      <point x="76" y="405"/>
      <point x="101" y="346"/>
      <point x="145" y="302"/>
      <point x="204" y="276"/>
    </contour>
    <contour>
      <point x="146" y="544" type="line"/>
      <point x="290" y="544" type="line" smooth="yes"/>
      <point x="306" y="544"/>
      <point x="335" y="530"/>
      <point x="335" y="511" type="qcurve" smooth="yes"/>
      <point x="335" y="477" type="line" smooth="yes"/>
      <point x="335" y="462"/>
      <point x="313" y="442"/>
      <point x="298" y="442" type="qcurve"/>
      <point x="313" y="442"/>
      <point x="335" y="422"/>
      <point x="335" y="407" type="qcurve" smooth="yes"/>
      <point x="335" y="359" type="line" smooth="yes"/>
      <point x="335" y="353"/>
      <point x="345" y="346"/>
      <point x="349" y="345" type="qcurve"/>
      <point x="349" y="341" type="line"/>
      <point x="254" y="341" type="line"/>
      <point x="254" y="345" type="line"/>
      <point x="258" y="347"/>
      <point x="267" y="353"/>
      <point x="267" y="359" type="qcurve" smooth="yes"/>
      <point x="267" y="424" type="line"/>
      <point x="228" y="424" type="line"/>
      <point x="228" y="359" type="line" smooth="yes"/>
      <point x="228" y="353"/>
      <point x="237" y="347"/>
      <point x="243" y="345" type="qcurve"/>
      <point x="243" y="341" type="line"/>
      <point x="146" y="341" type="line"/>
      <point x="146" y="345" type="line"/>
      <point x="151" y="347"/>
      <point x="160" y="353"/>
      <point x="160" y="359" type="qcurve" smooth="yes"/>
      <point x="160" y="526" type="line" smooth="yes"/>
      <point x="160" y="532"/>
      <point x="151" y="539"/>
      <point x="146" y="541" type="qcurve"/>
    </contour>
    <contour>
      <point x="267" y="461" type="line"/>
      <point x="267" y="489" type="line"/>
      <point x="228" y="489" type="line"/>
      <point x="228" y="461" type="line"/>
    </contour>
  </outline>
</glyph>
<glyph name="macron" format="2">
  <advance width="359"/>
  <unicode hex="00AF"/>
  <outline>
    <contour>
      <point x="25" y="851" type="line"/>
      <point x="341" y="851" type="line"/>
      <point x="341" y="713" type="line"/>
      <point x="25" y="713" type="line"/>
    </contour>
  </outline>
</glyph>
<glyph name="degree" format="2">
  <advance width="333"/>
  <unicode hex="00B0"/>
  <outline>
    <contour>
      <point x="16" y="534" type="qcurve" smooth="yes"/>
      <point x="16" y="564"/>
      <point x="39" y="618"/>
      <point x="79" y="657"/>
      <point x="132" y="680"/>
      <point x="163" y="680" type="qcurve" smooth="yes"/>
      <point x="194" y="680"/>
      <point x="247" y="657"/>
      <point x="286" y="618"/>
      <point x="309" y="564"/>
      <point x="309" y="534" type="qcurve" smooth="yes"/>
      <point x="309" y="503"/>
      <point x="286" y="450"/>
      <point x="247" y="410"/>
      <point x="194" y="387"/>
      <point x="163" y="387" type="qcurve" smooth="yes"/>
      <point x="132" y="387"/>
      <point x="79" y="410"/>
      <point x="39" y="450"/>
      <point x="16" y="503"/>
    </contour>
    <contour>
      <point x="70" y="534" type="qcurve" smooth="yes"/>
      <point x="70" y="514"/>
      <point x="85" y="480"/>
      <point x="110" y="455"/>
      <point x="144" y="440"/>
      <point x="163" y="440" type="qcurve" smooth="yes"/>
      <point x="182" y="440"/>
      <point x="216" y="455"/>
      <point x="241" y="480"/>
      <point x="256" y="514"/>
      <point x="256" y="534" type="qcurve" smooth="yes"/>
      <point x="256" y="553"/>
      <point x="241" y="587"/>
      <point x="216" y="612"/>
      <point x="182" y="627"/>
      <point x="163" y="627" type="qcurve" smooth="yes"/>
      <point x="144" y="627"/>
      <point x="110" y="612"/>
      <point x="85" y="587"/>
      <point x="70" y="553"/>
    </contour>
  </outline>
</glyph>
<glyph name="acute" format="2">
  <advance width="456"/>
  <unicode hex="00B4"/>
  <outline>
    <contour>
      <point x="287" y="716" type="line"/>
      <point x="104" y="716" type="line"/>
      <point x="212" y="884" type="line"/>
      <point x="390" y="884" type="line"/>
    </contour>
  </outline>
</glyph>
<glyph name="paragraph" format="2">
  <unicode hex="00B6"/>
  <outline>
    <contour>
      <point x="233" y="772" type="line"/>
      <point x="233" y="-91" type="line"/>
      <point x="51" y="-91" type="line"/>
      <point x="51" y="772" type="line"/>
    </contour>
  </outline>
</glyph>
<glyph name="periodcentered" format="2">
  <advance width="807"/>
  <unicode hex="00B7"/>
  <outline>
    <contour>
      <point x="591" y="-102" type="line"/>
      <point x="591" y="702" type="line"/>
      <point x="442" y="702" type="line"/>
      <point x="442" y="-102" type="line"/>
      <point x="335" y="-102" type="line"/>
      <point x="335" y="363" type="line"/>
      <point x="162" y="363" type="line" smooth="yes"/>
      <point x="155" y="363"/>
      <point x="148" y="364" type="qcurve" smooth="yes"/>
      <point x="118" y="366"/>
      <point x="64" y="384"/>
      <point x="26" y="422"/>
      <point x="26" y="456" type="qcurve" smooth="yes"/>
      <point x="26" y="716" type="line" smooth="yes"/>
      <point x="26" y="750"/>
      <point x="64" y="788"/>
      <point x="118" y="806"/>
      <point x="177" y="810"/>
      <point x="197" y="810" type="qcurve" smooth="yes"/>
      <point x="205" y="810"/>
      <point x="237" y="809"/>
      <point x="254" y="809" type="qcurve" smooth="yes"/>
      <point x="781" y="809" type="line"/>
      <point x="781" y="702" type="line"/>
      <point x="698" y="702" type="line"/>
      <point x="698" y="-102" type="line"/>
    </contour>
  </outline>
</glyph>
<glyph name="ordmasculine" format="2">
  <advance width="417"/>
  <unicode hex="00BA"/>
  <outline>
    <contour>
      <point x="388" y="340" type="line" smooth="yes"/>
      <point x="388" y="323"/>
      <point x="370" y="302"/>
      <point x="342" y="291"/>
      <point x="310" y="288"/>
      <point x="296" y="288" type="qcurve" smooth="yes"/>
      <point x="113" y="288" type="line" smooth="yes"/>
      <point x="98" y="288"/>
      <point x="66" y="291"/>
      <point x="39" y="302"/>
      <point x="22" y="323"/>
      <point x="22" y="340" type="qcurve" smooth="yes"/>
      <point x="22" y="623" type="line" smooth="yes"/>
      <point x="22" y="640"/>
      <point x="39" y="661"/>
      <point x="66" y="672"/>
      <point x="98" y="675"/>
      <point x="113" y="675" type="qcurve" smooth="yes"/>
      <point x="296" y="675" type="line" smooth="yes"/>
      <point x="310" y="675"/>
      <point x="342" y="672"/>
      <point x="370" y="661"/>
      <point x="388" y="640"/>
      <point x="388" y="623" type="qcurve" smooth="yes"/>
    </contour>
    <contour>
      <point x="250" y="393" type="line"/>
      <point x="250" y="570" type="line"/>
      <point x="159" y="570" type="line"/>
      <point x="159" y="393" type="line"/>
    </contour>
  </outline>
</glyph>
<glyph name="questiondown" format="2">
  <advance width="669"/>
  <unicode hex="00BF"/>
  <outline>
    <contour>
      <point x="367" y="494" type="qcurve" smooth="yes"/>
      <point x="347" y="494"/>
      <point x="307" y="506"/>
      <point x="274" y="530"/>
      <point x="253" y="564"/>
      <point x="253" y="586" type="qcurve" smooth="yes"/>
      <point x="253" y="608"/>
      <point x="274" y="643"/>
      <point x="307" y="667"/>
      <point x="347" y="679"/>
      <point x="367" y="679" type="qcurve" smooth="yes"/>
      <point x="387" y="679"/>
      <point x="427" y="667"/>
      <point x="460" y="643"/>
      <point x="480" y="608"/>
      <point x="480" y="586" type="qcurve" smooth="yes"/>
      <point x="480" y="564"/>
      <point x="460" y="530"/>
      <point x="427" y="506"/>
      <point x="387" y="494"/>
    </contour>
    <contour>
      <point x="638" y="247" type="line"/>
      <point x="638" y="92" type="line" smooth="yes"/>
      <point x="638" y="62"/>
      <point x="608" y="25"/>
      <point x="563" y="6"/>
      <point x="509" y="0"/>
      <point x="486" y="0" type="qcurve" smooth="yes"/>
      <point x="183" y="0" type="line" smooth="yes"/>
      <point x="160" y="0"/>
      <point x="107" y="6"/>
      <point x="62" y="25"/>
      <point x="32" y="62"/>
      <point x="32" y="92" type="qcurve" smooth="yes"/>
      <point x="32" y="309" type="line" smooth="yes"/>
      <point x="32" y="338"/>
      <point x="61" y="375"/>
      <point x="105" y="395"/>
      <point x="159" y="402"/>
      <point x="184" y="402" type="qcurve"/>
      <point x="186" y="402"/>
      <point x="226" y="401"/>
      <point x="253" y="401" type="qcurve"/>
      <point x="253" y="421"/>
      <point x="223" y="444"/>
      <point x="207" y="450" type="qcurve"/>
      <point x="207" y="463" type="line"/>
      <point x="527" y="463" type="line"/>
      <point x="527" y="450" type="line"/>
      <point x="509" y="443"/>
      <point x="490" y="429"/>
      <point x="481" y="411"/>
      <point x="480" y="387"/>
      <point x="480" y="370" type="qcurve" smooth="yes"/>
      <point x="480" y="341"/>
      <point x="451" y="304"/>
      <point x="407" y="284"/>
      <point x="353" y="277"/>
      <point x="328" y="277" type="qcurve"/>
      <point x="326" y="277"/>
      <point x="286" y="278"/>
      <point x="259" y="278" type="qcurve"/>
      <point x="259" y="185" type="line"/>
      <point x="411" y="185" type="line"/>
      <point x="411" y="205"/>
      <point x="380" y="228"/>
      <point x="364" y="234" type="qcurve"/>
      <point x="364" y="247" type="line"/>
    </contour>
  </outline>
</glyph>
<glyph name="multiply" format="2">
  <advance width="540"/>
  <unicode hex="00D7"/>
  <outline>
    <contour>
      <point x="382" y="609" type="line"/>
      <point x="501" y="490" type="line"/>
      <point x="382" y="371" type="line"/>
      <point x="501" y="252" type="line"/>
      <point x="383" y="134" type="line"/>
      <point x="264" y="253" type="line"/>
      <point x="144" y="134" type="line"/>
      <point x="26" y="252" type="line"/>
      <point x="145" y="371" type="line"/>
      <point x="26" y="490" type="line"/>
      <point x="145" y="609" type="line"/>
      <point x="264" y="490" type="line"/>
    </contour>
  </outline>
</glyph>
<glyph name="Oslash" format="2">
  <advance width="700"/>
  <unicode hex="00D8"/>
  <outline>
    <contour>
      <point x="635" y="752" type="line"/>
      <point x="583" y="669" type="line"/>
      <point x="588" y="667"/>
      <point x="596" y="664"/>
      <point x="601" y="662" type="qcurve" smooth="yes"/>
      <point x="624" y="653"/>
      <point x="654" y="616"/>
      <point x="654" y="586" type="qcurve" smooth="yes"/>
      <point x="654" y="92" type="line" smooth="yes"/>
      <point x="654" y="62"/>
      <point x="624" y="25"/>
      <point x="579" y="6"/>
      <point x="526" y="0"/>
      <point x="502" y="0" type="qcurve" smooth="yes"/>
      <point x="199" y="0" type="line" smooth="yes"/>
      <point x="192" y="0"/>
      <point x="178" y="0"/>
      <point x="171" y="1" type="qcurve"/>
      <point x="118" y="-86" type="line"/>
      <point x="34" y="-86" type="line"/>
      <point x="97" y="16" type="line"/>
      <point x="75" y="27"/>
      <point x="62" y="43" type="qcurve"/>
      <point x="48" y="63"/>
      <point x="48" y="92" type="qcurve" smooth="yes"/>
      <point x="48" y="586" type="line" smooth="yes"/>
      <point x="48" y="616"/>
      <point x="77" y="653"/>
      <point x="122" y="672"/>
      <point x="175" y="678"/>
      <point x="199" y="678" type="qcurve" smooth="yes"/>
      <point x="505" y="678" type="line"/>
      <point x="551" y="752" type="line"/>
    </contour>
    <contour>
      <point x="275" y="305" type="line"/>
      <point x="391" y="493" type="line"/>
      <point x="275" y="493" type="line"/>
    </contour>
    <contour>
      <point x="426" y="185" type="line"/>
      <point x="426" y="413" type="line"/>
      <point x="285" y="185" type="line"/>
    </contour>
  </outline>
</glyph>
<glyph name="germandbls" format="2">
  <advance width="696"/>
  <unicode hex="00DF"/>
  <outline>
    <contour>
      <point x="431" y="401" type="line"/>
      <point x="431" y="494" type="line"/>
      <point x="286" y="494" type="line"/>
      <point x="286" y="0" type="line"/>
      <point x="12" y="0" type="line"/>
      <point x="12" y="13" type="line"/>
      <point x="28" y="18"/>
      <point x="58" y="41"/>
      <point x="58" y="61" type="qcurve" smooth="yes"/>
      <point x="58" y="586" type="line" smooth="yes"/>
      <point x="58" y="616"/>
      <point x="88" y="653"/>
      <point x="133" y="673"/>
      <point x="186" y="679"/>
      <point x="210" y="679" type="qcurve" smooth="yes"/>
      <point x="507" y="679" type="line" smooth="yes"/>
      <point x="531" y="679"/>
      <point x="584" y="673"/>
      <point x="629" y="653"/>
      <point x="658" y="616"/>
      <point x="658" y="586" type="qcurve" smooth="yes"/>
      <point x="658" y="432" type="line" smooth="yes"/>
      <point x="658" y="393"/>
      <point x="620" y="351"/>
      <point x="589" y="343" type="qcurve" smooth="yes"/>
      <point x="581" y="341"/>
      <point x="567" y="340"/>
      <point x="560" y="339" type="qcurve"/>
      <point x="567" y="338"/>
      <point x="581" y="336"/>
      <point x="589" y="334" type="qcurve" smooth="yes"/>
      <point x="620" y="328"/>
      <point x="658" y="286"/>
      <point x="658" y="247" type="qcurve" smooth="yes"/>
      <point x="658" y="92" type="line" smooth="yes"/>
      <point x="658" y="62"/>
      <point x="628" y="25"/>
      <point x="583" y="6"/>
      <point x="530" y="0"/>
      <point x="507" y="0" type="qcurve" smooth="yes"/>
      <point x="321" y="0" type="line"/>
      <point x="321" y="185" type="line"/>
      <point x="431" y="185" type="line"/>
      <point x="431" y="278" type="line"/>
      <point x="320" y="278" type="line"/>
      <point x="320" y="401" type="line"/>
    </contour>
  </outline>
</glyph>
<glyph name="eth" format="2">
  <advance width="720"/>
  <unicode hex="00F0"/>
  <outline>
    <contour>
      <point x="40" y="432" type="line"/>
      <point x="93" y="432" type="line"/>
      <point x="93" y="617" type="line" smooth="yes"/>
      <point x="93" y="636"/>
      <point x="63" y="659"/>
      <point x="47" y="665" type="qcurve"/>
      <point x="47" y="678" type="line"/>
      <point x="519" y="678" type="line" smooth="yes"/>
      <point x="543" y="678"/>
      <point x="596" y="672"/>
      <point x="641" y="653"/>
      <point x="671" y="616"/>
      <point x="671" y="586" type="qcurve" smooth="yes"/>
      <point x="671" y="92" type="line" smooth="yes"/>
      <point x="671" y="62"/>
      <point x="641" y="25"/>
      <point x="596" y="6"/>
      <point x="543" y="0"/>
      <point x="519" y="0" type="qcurve" smooth="yes"/>
      <point x="47" y="0" type="line"/>
      <point x="47" y="13" type="line"/>
      <point x="62" y="19"/>
      <point x="93" y="42"/>
      <point x="93" y="61" type="qcurve" smooth="yes"/>
      <point x="93" y="264" type="line"/>
      <point x="40" y="264" type="line"/>
    </contour>
    <contour>
      <point x="444" y="185" type="line"/>
      <point x="444" y="493" type="line"/>
      <point x="320" y="493" type="line"/>
      <point x="320" y="432" type="line"/>
      <point x="392" y="432" type="line"/>
      <point x="392" y="264" type="line"/>
      <point x="320" y="264" type="line"/>
      <point x="320" y="185" type="line"/>
    </contour>
  </outline>
</glyph>
<glyph name="thorn" format="2">
  <advance width="604"/>
  <unicode hex="00FE"/>
  <outline>
    <contour>
      <point x="233" y="772" type="line"/>
      <point x="233" y="593" type="line"/>
      <point x="422" y="593" type="line" smooth="yes"/>
      <point x="446" y="593"/>
      <point x="499" y="587"/>
      <point x="544" y="568"/>
      <point x="574" y="531"/>
      <point x="574" y="501" type="qcurve" smooth="yes"/>
      <point x="574" y="191" type="line" smooth="yes"/>
      <point x="574" y="161"/>
      <point x="544" y="124"/>
      <point x="499" y="105"/>
      <point x="446" y="99"/>
      <point x="422" y="99" type="qcurve" smooth="yes"/>
      <point x="233" y="99" type="line"/>
      <point x="233" y="-91" type="line"/>
      <point x="51" y="-91" type="line"/>
      <point x="51" y="772" type="line"/>
    </contour>
    <contour>
      <point x="399" y="284" type="line"/>
      <point x="399" y="408" type="line"/>
      <point x="233" y="408" type="line"/>
      <point x="233" y="284" type="line"/>
    </contour>
  </outline>
</glyph>
<glyph name="dcaron" format="2">
  <advance width="849"/>
  <unicode hex="010F"/>
  <outline>
    <contour>
      <point x="17" y="13" type="line"/>
      <point x="32" y="19"/>
      <point x="63" y="42"/>
      <point x="63" y="61" type="qcurve" smooth="yes"/>
      <point x="63" y="617" type="line" smooth="yes"/>
      <point x="63" y="636"/>
      <point x="33" y="659"/>
      <point x="17" y="665" type="qcurve"/>
      <point x="17" y="678" type="line"/>
      <point x="489" y="678" type="line" smooth="yes"/>
      <point x="513" y="678"/>
      <point x="566" y="672"/>
      <point x="611" y="653"/>
      <point x="641" y="616"/>
      <point x="641" y="586" type="qcurve" smooth="yes"/>
      <point x="641" y="92" type="line" smooth="yes"/>
      <point x="641" y="62"/>
      <point x="611" y="25"/>
      <point x="566" y="6"/>
      <point x="513" y="0"/>
      <point x="489" y="0" type="qcurve" smooth="yes"/>
      <point x="17" y="0" type="line"/>
    </contour>
    <contour>
      <point x="414" y="185" type="line"/>
      <point x="414" y="493" type="line"/>
      <point x="290" y="493" type="line"/>
      <point x="290" y="185" type="line"/>
    </contour>
    <contour>
      <point x="673" y="680" type="line"/>
      <point x="825" y="680" type="line"/>
      <point x="825" y="432" type="line"/>
      <point x="673" y="432" type="line"/>
    </contour>
  </outline>
</glyph>
<glyph name="Gcommaaccent" format="2">
  <advance width="710"/>
  <unicode hex="0122"/>
  <outline>
    <contour>
      <point x="315" y="401" type="line"/>
      <point x="656" y="401" type="line"/>
      <point x="656" y="93" type="line" smooth="yes"/>
      <point x="656" y="63"/>
      <point x="626" y="26"/>
      <point x="581" y="6"/>
      <point x="528" y="0"/>
      <point x="504" y="0" type="qcurve" smooth="yes"/>
      <point x="201" y="0" type="line" smooth="yes"/>
      <point x="177" y="0"/>
      <point x="124" y="6"/>
      <point x="79" y="26"/>
      <point x="50" y="63"/>
      <point x="50" y="93" type="qcurve" smooth="yes"/>
      <point x="50" y="587" type="line" smooth="yes"/>
      <point x="50" y="617"/>
      <point x="80" y="654"/>
      <point x="125" y="673"/>
      <point x="178" y="679"/>
      <point x="201" y="679" type="qcurve" smooth="yes"/>
      <point x="504" y="679" type="line" smooth="yes"/>
      <point x="527" y="679"/>
      <point x="581" y="673"/>
      <point x="626" y="654"/>
      <point x="656" y="617"/>
      <point x="656" y="587" type="qcurve" smooth="yes"/>
      <point x="656" y="432" type="line"/>
      <point x="382" y="432" type="line"/>
      <point x="382" y="445" type="line"/>
      <point x="398" y="451"/>
      <point x="429" y="474"/>
      <point x="429" y="494" type="qcurve"/>
      <point x="277" y="494" type="line"/>
      <point x="277" y="185" type="line"/>
      <point x="429" y="185" type="line"/>
      <point x="429" y="278" type="line"/>
      <point x="391" y="278" type="line" smooth="yes"/>
      <point x="371" y="278"/>
      <point x="342" y="257"/>
      <point x="331" y="240" type="qcurve"/>
      <point x="315" y="240" type="line"/>
    </contour>
    <contour>
      <point x="314" y="-226" type="line"/>
      <point x="284" y="-217"/>
      <point x="238" y="-172"/>
      <point x="238" y="-139" type="qcurve" smooth="yes"/>
      <point x="238" y="-117"/>
      <point x="258" y="-82"/>
      <point x="291" y="-58"/>
      <point x="331" y="-46"/>
      <point x="351" y="-46" type="qcurve" smooth="yes"/>
      <point x="370" y="-46"/>
      <point x="411" y="-58"/>
      <point x="444" y="-82"/>
      <point x="465" y="-117"/>
      <point x="465" y="-139" type="qcurve" smooth="yes"/>
      <point x="465" y="-166"/>
      <point x="446" y="-212"/>
      <point x="415" y="-250"/>
      <point x="374" y="-281"/>
      <point x="352" y="-293" type="qcurve"/>
      <point x="314" y="-293" type="line"/>
    </contour>
  </outline>
</glyph>
<glyph name="hbar" format="2">
  <advance width="770"/>
  <unicode hex="0127"/>
  <outline>
    <contour>
      <point x="353" y="666" type="line"/>
      <point x="337" y="660"/>
      <point x="307" y="636"/>
      <point x="307" y="617" type="qcurve" smooth="yes"/>
      <point x="307" y="546" type="line"/>
      <point x="459" y="546" type="line"/>
      <point x="459" y="617" type="line" smooth="yes"/>
      <point x="459" y="637"/>
      <point x="429" y="660"/>
      <point x="413" y="666" type="qcurve"/>
      <point x="413" y="679" type="line"/>
      <point x="732" y="679" type="line"/>
      <point x="732" y="666" type="line"/>
      <point x="716" y="660"/>
      <point x="686" y="637"/>
      <point x="686" y="617" type="qcurve" smooth="yes"/>
      <point x="686" y="546" type="line"/>
      <point x="738" y="546" type="line"/>
      <point x="738" y="455" type="line"/>
      <point x="686" y="455" type="line"/>
      <point x="686" y="61" type="line" smooth="yes"/>
      <point x="686" y="41"/>
      <point x="716" y="19"/>
      <point x="732" y="13" type="qcurve"/>
      <point x="732" y="0" type="line"/>
      <point x="413" y="0" type="line"/>
      <point x="413" y="13" type="line"/>
      <point x="429" y="19"/>
      <point x="459" y="41"/>
      <point x="459" y="61" type="qcurve" smooth="yes"/>
      <point x="459" y="278" type="line"/>
      <point x="307" y="278" type="line"/>
      <point x="307" y="61" type="line" smooth="yes"/>
      <point x="307" y="42"/>
      <point x="338" y="19"/>
      <point x="353" y="13" type="qcurve"/>
      <point x="353" y="0" type="line"/>
      <point x="34" y="0" type="line"/>
      <point x="34" y="13" type="line"/>
      <point x="50" y="19"/>
      <point x="80" y="41"/>
      <point x="80" y="61" type="qcurve" smooth="yes"/>
      <point x="80" y="455" type="line"/>
      <point x="15" y="455" type="line"/>
      <point x="15" y="546" type="line"/>
      <point x="80" y="546" type="line"/>
      <point x="80" y="617" type="line" smooth="yes"/>
      <point x="80" y="637"/>
      <point x="50" y="660"/>
      <point x="34" y="666" type="qcurve"/>
      <point x="34" y="679" type="line"/>
      <point x="353" y="679" type="line"/>
    </contour>
    <contour>
      <point x="459" y="401" type="line"/>
      <point x="459" y="455" type="line"/>
      <point x="307" y="455" type="line"/>
      <point x="307" y="401" type="line"/>
    </contour>
  </outline>
</glyph>
<glyph name="kcommaaccent" format="2">
  <advance width="743"/>
  <unicode hex="0137"/>
  <outline>
    <contour>
      <point x="339" y="666" type="line"/>
      <point x="323" y="660"/>
      <point x="293" y="637"/>
      <point x="293" y="617" type="qcurve" smooth="yes"/>
      <point x="293" y="401" type="line"/>
      <point x="445" y="401" type="line"/>
      <point x="445" y="617" type="line" smooth="yes"/>
      <point x="445" y="637"/>
      <point x="414" y="660"/>
      <point x="398" y="666" type="qcurve"/>
      <point x="398" y="679" type="line"/>
      <point x="718" y="679" type="line"/>
      <point x="718" y="666" type="line"/>
      <point x="701" y="660"/>
      <point x="672" y="637"/>
      <point x="672" y="617" type="qcurve" smooth="yes"/>
      <point x="672" y="489" type="line" smooth="yes"/>
      <point x="672" y="464"/>
      <point x="653" y="411"/>
      <point x="620" y="368"/>
      <point x="574" y="340"/>
      <point x="547" y="340" type="qcurve"/>
      <point x="575" y="340"/>
      <point x="621" y="308"/>
      <point x="654" y="260"/>
      <point x="672" y="203"/>
      <point x="672" y="179" type="qcurve" smooth="yes"/>
      <point x="672" y="62" type="line" smooth="yes"/>
      <point x="672" y="42"/>
      <point x="701" y="19"/>
      <point x="718" y="13" type="qcurve"/>
      <point x="718" y="0" type="line"/>
      <point x="398" y="0" type="line"/>
      <point x="398" y="13" type="line"/>
      <point x="414" y="19"/>
      <point x="445" y="42"/>
      <point x="445" y="62" type="qcurve" smooth="yes"/>
      <point x="445" y="278" type="line"/>
      <point x="293" y="278" type="line"/>
      <point x="293" y="62" type="line" smooth="yes"/>
      <point x="293" y="42"/>
      <point x="323" y="19"/>
      <point x="339" y="13" type="qcurve"/>
      <point x="339" y="0" type="line"/>
      <point x="20" y="0" type="line"/>
      <point x="20" y="13" type="line"/>
      <point x="37" y="19"/>
      <point x="66" y="42"/>
      <point x="66" y="62" type="qcurve" smooth="yes"/>
      <point x="66" y="617" type="line" smooth="yes"/>
      <point x="66" y="637"/>
      <point x="37" y="660"/>
      <point x="20" y="666" type="qcurve"/>
      <point x="20" y="679" type="line"/>
      <point x="339" y="679" type="line"/>
    </contour>
    <contour>
      <point x="324" y="-226" type="line"/>
      <point x="294" y="-217"/>
      <point x="248" y="-172"/>
      <point x="248" y="-139" type="qcurve" smooth="yes"/>
      <point x="248" y="-117"/>
      <point x="268" y="-82"/>
      <point x="301" y="-58"/>
      <point x="341" y="-46"/>
      <point x="361" y="-46" type="qcurve" smooth="yes"/>
      <point x="380" y="-46"/>
      <point x="421" y="-58"/>
      <point x="454" y="-82"/>
      <point x="475" y="-117"/>
      <point x="475" y="-139" type="qcurve" smooth="yes"/>
      <point x="475" y="-166"/>
      <point x="456" y="-212"/>
      <point x="425" y="-250"/>
      <point x="384" y="-281"/>
      <point x="362" y="-293" type="qcurve"/>
      <point x="324" y="-293" type="line"/>
    </contour>
  </outline>
</glyph>
<glyph name="Lcommaaccent" format="2">
  <advance width="575"/>
  <unicode hex="013B"/>
  <outline>
    <contour>
      <point x="248" y="-226" type="line"/>
      <point x="218" y="-217"/>
      <point x="172" y="-172"/>
      <point x="172" y="-139" type="qcurve" smooth="yes"/>
      <point x="172" y="-117"/>
      <point x="192" y="-82"/>
      <point x="225" y="-58"/>
      <point x="265" y="-46"/>
      <point x="285" y="-46" type="qcurve" smooth="yes"/>
      <point x="304" y="-46"/>
      <point x="345" y="-58"/>
      <point x="378" y="-82"/>
      <point x="399" y="-117"/>
      <point x="399" y="-139" type="qcurve" smooth="yes"/>
      <point x="399" y="-166"/>
      <point x="380" y="-212"/>
      <point x="349" y="-250"/>
      <point x="308" y="-281"/>
      <point x="286" y="-293" type="qcurve"/>
      <point x="248" y="-293" type="line"/>
    </contour>
    <contour>
      <point x="540" y="222" type="line"/>
      <point x="540" y="0" type="line"/>
      <point x="17" y="0" type="line"/>
      <point x="17" y="13" type="line"/>
      <point x="32" y="19"/>
      <point x="63" y="42"/>
      <point x="63" y="61" type="qcurve" smooth="yes"/>
      <point x="63" y="617" type="line" smooth="yes"/>
      <point x="63" y="636"/>
      <point x="33" y="660"/>
      <point x="17" y="666" type="qcurve"/>
      <point x="17" y="679" type="line"/>
      <point x="336" y="679" type="line"/>
      <point x="336" y="666" type="line"/>
      <point x="320" y="660"/>
      <point x="290" y="637"/>
      <point x="290" y="617" type="qcurve" smooth="yes"/>
      <point x="290" y="185" type="line"/>
      <point x="464" y="185" type="line" smooth="yes"/>
      <point x="484" y="185"/>
      <point x="513" y="205"/>
      <point x="524" y="222" type="qcurve"/>
    </contour>
  </outline>
</glyph>
<glyph name="lslash" format="2">
  <advance width="607"/>
  <unicode hex="0142"/>
  <outline>
    <contour>
      <point x="577" y="222" type="line"/>
      <point x="577" y="0" type="line"/>
      <point x="54" y="0" type="line"/>
      <point x="54" y="13" type="line"/>
      <point x="69" y="19"/>
      <point x="100" y="42"/>
      <point x="100" y="61" type="qcurve" smooth="yes"/>
      <point x="100" y="264" type="line"/>
      <point x="45" y="264" type="line"/>
      <point x="45" y="432" type="line"/>
      <point x="100" y="432" type="line"/>
      <point x="100" y="617" type="line" smooth="yes"/>
      <point x="100" y="636"/>
      <point x="70" y="660"/>
      <point x="54" y="666" type="qcurve"/>
      <point x="54" y="679" type="line"/>
      <point x="373" y="679" type="line"/>
      <point x="373" y="666" type="line"/>
      <point x="357" y="660"/>
      <point x="327" y="637"/>
      <point x="327" y="617" type="qcurve" smooth="yes"/>
      <point x="327" y="432" type="line"/>
      <point x="397" y="432" type="line"/>
      <point x="397" y="264" type="line"/>
      <point x="327" y="264" type="line"/>
      <point x="327" y="185" type="line"/>
      <point x="501" y="185" type="line" smooth="yes"/>
      <point x="521" y="185"/>
      <point x="550" y="205"/>
      <point x="561" y="222" type="qcurve"/>
    </contour>
  </outline>
</glyph>
<glyph name="ncommaaccent" format="2">
  <advance width="738"/>
  <unicode hex="0146"/>
  <outline>
    <contour>
      <point x="17" y="13" type="line"/>
      <point x="34" y="19"/>
      <point x="63" y="42"/>
      <point x="63" y="62" type="qcurve" smooth="yes"/>
      <point x="63" y="617" type="line" smooth="yes"/>
      <point x="63" y="637"/>
      <point x="34" y="660"/>
      <point x="17" y="666" type="qcurve"/>
      <point x="17" y="679" type="line"/>
      <point x="336" y="679" type="line"/>
      <point x="336" y="666" type="line"/>
      <point x="320" y="660"/>
      <point x="290" y="637"/>
      <point x="290" y="617" type="qcurve" smooth="yes"/>
      <point x="290" y="494" type="line"/>
      <point x="442" y="344" type="line"/>
      <point x="442" y="617" type="line" smooth="yes"/>
      <point x="442" y="637"/>
      <point x="413" y="660"/>
      <point x="396" y="666" type="qcurve"/>
      <point x="396" y="679" type="line"/>
      <point x="715" y="679" type="line"/>
      <point x="715" y="666" type="line"/>
      <point x="698" y="660"/>
      <point x="669" y="637"/>
      <point x="669" y="617" type="qcurve" smooth="yes"/>
      <point x="669" y="62" type="line" smooth="yes"/>
      <point x="669" y="42"/>
      <point x="698" y="19"/>
      <point x="715" y="13" type="qcurve"/>
      <point x="715" y="0" type="line"/>
      <point x="396" y="0" type="line"/>
      <point x="396" y="13" type="line"/>
      <point x="413" y="19"/>
      <point x="442" y="42"/>
      <point x="442" y="62" type="qcurve" smooth="yes"/>
      <point x="442" y="150" type="line"/>
      <point x="290" y="300" type="line"/>
      <point x="290" y="62" type="line" smooth="yes"/>
      <point x="290" y="42"/>
      <point x="320" y="19"/>
      <point x="336" y="13" type="qcurve"/>
      <point x="336" y="0" type="line"/>
      <point x="17" y="0" type="line"/>
    </contour>
    <contour>
      <point x="314" y="-226" type="line"/>
      <point x="284" y="-217"/>
      <point x="238" y="-172"/>
      <point x="238" y="-139" type="qcurve" smooth="yes"/>
      <point x="238" y="-117"/>
      <point x="258" y="-82"/>
      <point x="291" y="-58"/>
      <point x="331" y="-46"/>
      <point x="351" y="-46" type="qcurve" smooth="yes"/>
      <point x="370" y="-46"/>
      <point x="411" y="-58"/>
      <point x="444" y="-82"/>
      <point x="465" y="-117"/>
      <point x="465" y="-139" type="qcurve" smooth="yes"/>
      <point x="465" y="-166"/>
      <point x="446" y="-212"/>
      <point x="415" y="-250"/>
      <point x="374" y="-281"/>
      <point x="352" y="-293" type="qcurve"/>
      <point x="314" y="-293" type="line"/>
    </contour>
  </outline>
</glyph>
<glyph name="OE" format="2">
  <advance width="1039"/>
  <unicode hex="0152"/>
  <outline>
    <contour>
      <point x="806" y="401" type="line" smooth="yes"/>
      <point x="826" y="401"/>
      <point x="856" y="421"/>
      <point x="866" y="438" type="qcurve"/>
      <point x="882" y="438" type="line"/>
      <point x="882" y="240" type="line"/>
      <point x="866" y="240" type="line"/>
      <point x="856" y="257"/>
      <point x="826" y="278"/>
      <point x="806" y="278" type="qcurve" smooth="yes"/>
      <point x="655" y="278" type="line"/>
      <point x="655" y="185" type="line"/>
      <point x="920" y="185" type="line" smooth="yes"/>
      <point x="940" y="185"/>
      <point x="970" y="205"/>
      <point x="980" y="222" type="qcurve"/>
      <point x="996" y="222" type="line"/>
      <point x="996" y="0" type="line"/>
      <point x="199" y="0" type="line" smooth="yes"/>
      <point x="175" y="0"/>
      <point x="122" y="6"/>
      <point x="77" y="25"/>
      <point x="48" y="62"/>
      <point x="48" y="92" type="qcurve" smooth="yes"/>
      <point x="48" y="586" type="line" smooth="yes"/>
      <point x="48" y="616"/>
      <point x="77" y="653"/>
      <point x="122" y="672"/>
      <point x="175" y="678"/>
      <point x="199" y="678" type="qcurve" smooth="yes"/>
      <point x="996" y="678" type="line"/>
      <point x="996" y="456" type="line"/>
      <point x="980" y="456" type="line"/>
      <point x="970" y="473"/>
      <point x="940" y="494"/>
      <point x="920" y="494" type="qcurve" smooth="yes"/>
      <point x="655" y="494" type="line"/>
      <point x="655" y="401" type="line"/>
    </contour>
    <contour>
      <point x="426" y="185" type="line"/>
      <point x="426" y="493" type="line"/>
      <point x="275" y="493" type="line"/>
      <point x="275" y="185" type="line"/>
    </contour>
  </outline>
</glyph>
<glyph name="Tcommaaccent" format="2">
  <advance width="557"/>
  <unicode hex="0162"/>
  <outline>
    <contour>
      <point x="19" y="679" type="line"/>
      <point x="544" y="679" type="line"/>
      <point x="544" y="456" type="line"/>
      <point x="528" y="456" type="line"/>
      <point x="518" y="473"/>
      <point x="489" y="494"/>
      <point x="469" y="494" type="qcurve" smooth="yes"/>
      <point x="396" y="494" type="line"/>
      <point x="396" y="62" type="line" smooth="yes"/>
      <point x="396" y="42"/>
      <point x="425" y="19"/>
      <point x="442" y="13" type="qcurve"/>
      <point x="442" y="0" type="line"/>
      <point x="123" y="0" type="line"/>
      <point x="123" y="13" type="line"/>
      <point x="139" y="19"/>
      <point x="169" y="42"/>
      <point x="169" y="62" type="qcurve" smooth="yes"/>
      <point x="169" y="494" type="line"/>
      <point x="95" y="494" type="line" smooth="yes"/>
      <point x="75" y="494"/>
      <point x="46" y="473"/>
      <point x="36" y="456" type="qcurve"/>
      <point x="19" y="456" type="line"/>
    </contour>
    <contour>
      <point x="250" y="-226" type="line"/>
      <point x="220" y="-217"/>
      <point x="174" y="-172"/>
      <point x="174" y="-139" type="qcurve" smooth="yes"/>
      <point x="174" y="-117"/>
      <point x="194" y="-82"/>
      <point x="227" y="-58"/>
      <point x="267" y="-46"/>
      <point x="287" y="-46" type="qcurve" smooth="yes"/>
      <point x="306" y="-46"/>
      <point x="347" y="-58"/>
      <point x="380" y="-82"/>
      <point x="401" y="-117"/>
      <point x="401" y="-139" type="qcurve" smooth="yes"/>
      <point x="401" y="-166"/>
      <point x="382" y="-212"/>
      <point x="351" y="-250"/>
      <point x="310" y="-281"/>
      <point x="288" y="-293" type="qcurve"/>
      <point x="250" y="-293" type="line"/>
    </contour>
  </outline>
</glyph>
<glyph name="Tcaron" format="2">
  <advance width="565"/>
  <unicode hex="0164"/>
  <outline>
    <contour>
      <point x="409" y="716" type="line"/>
      <point x="156" y="716" type="line"/>
      <point x="53" y="884" type="line"/>
      <point x="231" y="884" type="line"/>
      <point x="282" y="804" type="line"/>
      <point x="334" y="884" type="line"/>
      <point x="512" y="884" type="line"/>
    </contour>
    <contour>
      <point x="19" y="679" type="line"/>
      <point x="544" y="679" type="line"/>
      <point x="544" y="456" type="line"/>
      <point x="528" y="456" type="line"/>
      <point x="518" y="473"/>
      <point x="489" y="494"/>
      <point x="469" y="494" type="qcurve" smooth="yes"/>
      <point x="396" y="494" type="line"/>
      <point x="396" y="62" type="line" smooth="yes"/>
      <point x="396" y="42"/>
      <point x="425" y="19"/>
      <point x="442" y="13" type="qcurve"/>
      <point x="442" y="0" type="line"/>
      <point x="123" y="0" type="line"/>
      <point x="123" y="13" type="line"/>
      <point x="139" y="19"/>
      <point x="169" y="42"/>
      <point x="169" y="62" type="qcurve" smooth="yes"/>
      <point x="169" y="494" type="line"/>
      <point x="95" y="494" type="line" smooth="yes"/>
      <point x="75" y="494"/>
      <point x="46" y="473"/>
      <point x="36" y="456" type="qcurve"/>
      <point x="19" y="456" type="line"/>
    </contour>
  </outline>
</glyph>
<glyph name="tcaron" format="2">
  <advance width="825"/>
  <unicode hex="0165"/>
  <outline>
    <contour>
      <point x="19" y="679" type="line"/>
      <point x="544" y="679" type="line"/>
      <point x="544" y="456" type="line"/>
      <point x="528" y="456" type="line"/>
      <point x="518" y="473"/>
      <point x="489" y="494"/>
      <point x="469" y="494" type="qcurve" smooth="yes"/>
      <point x="396" y="494" type="line"/>
      <point x="396" y="62" type="line" smooth="yes"/>
      <point x="396" y="42"/>
      <point x="425" y="19"/>
      <point x="442" y="13" type="qcurve"/>
      <point x="442" y="0" type="line"/>
      <point x="123" y="0" type="line"/>
      <point x="123" y="13" type="line"/>
      <point x="139" y="19"/>
      <point x="169" y="42"/>
      <point x="169" y="62" type="qcurve" smooth="yes"/>
      <point x="169" y="494" type="line"/>
      <point x="95" y="494" type="line" smooth="yes"/>
      <point x="75" y="494"/>
      <point x="46" y="473"/>
      <point x="36" y="456" type="qcurve"/>
      <point x="19" y="456" type="line"/>
    </contour>
    <contour>
      <point x="639" y="469" type="line"/>
      <point x="609" y="478"/>
      <point x="563" y="523"/>
      <point x="563" y="556" type="qcurve" smooth="yes"/>
      <point x="563" y="578"/>
      <point x="583" y="613"/>
      <point x="616" y="637"/>
      <point x="656" y="649"/>
      <point x="676" y="649" type="qcurve" smooth="yes"/>
      <point x="695" y="649"/>
      <point x="736" y="637"/>
      <point x="769" y="613"/>
      <point x="790" y="578"/>
      <point x="790" y="556" type="qcurve" smooth="yes"/>
      <point x="790" y="529"/>
      <point x="771" y="483"/>
      <point x="740" y="445"/>
      <point x="699" y="414"/>
      <point x="677" y="402" type="qcurve"/>
      <point x="639" y="402" type="line"/>
    </contour>
  </outline>
</glyph>
<glyph name="circumflex" format="2">
  <advance width="520"/>
  <unicode hex="02C6"/>
  <outline>
    <contour>
      <point x="497" y="716" type="line"/>
      <point x="319" y="716" type="line"/>
      <point x="267" y="796" type="line"/>
      <point x="216" y="716" type="line"/>
      <point x="38" y="716" type="line"/>
      <point x="141" y="884" type="line"/>
      <point x="394" y="884" type="line"/>
    </contour>
  </outline>
</glyph>
<glyph name="caron" format="2">
  <advance width="513"/>
  <unicode hex="02C7"/>
  <outline>
    <contour>
      <point x="394" y="716" type="line"/>
      <point x="141" y="716" type="line"/>
      <point x="38" y="884" type="line"/>
      <point x="216" y="884" type="line"/>
      <point x="267" y="804" type="line"/>
      <point x="319" y="884" type="line"/>
      <point x="497" y="884" type="line"/>
    </contour>
  </outline>
</glyph>
<glyph name="breve" format="2">
  <advance width="602"/>
  <unicode hex="02D8"/>
  <outline>
    <contour>
      <point x="495" y="884" type="line"/>
      <point x="490" y="846"/>
      <point x="456" y="780"/>
      <point x="404" y="732"/>
      <point x="338" y="704"/>
      <point x="301" y="704" type="qcurve" smooth="yes"/>
      <point x="263" y="704"/>
      <point x="197" y="732"/>
      <point x="146" y="780"/>
      <point x="112" y="846"/>
      <point x="107" y="884" type="qcurve"/>
      <point x="215" y="884" type="line"/>
      <point x="223" y="855"/>
      <point x="270" y="817"/>
      <point x="301" y="817" type="qcurve" smooth="yes"/>
      <point x="332" y="817"/>
      <point x="378" y="855"/>
      <point x="387" y="884" type="qcurve"/>
    </contour>
  </outline>
</glyph>
<glyph name="ogonek" format="2">
  <advance width="415"/>
  <unicode hex="02DB"/>
  <outline>
    <contour>
      <point x="97" y="-82" type="line" smooth="yes"/>
      <point x="97" y="-70"/>
      <point x="111" y="-55"/>
      <point x="131" y="-47"/>
      <point x="153" y="-44"/>
      <point x="161" y="-44" type="qcurve" smooth="yes"/>
      <point x="225" y="-44" type="line"/>
      <point x="225" y="0" type="line"/>
      <point x="329" y="0" type="line"/>
      <point x="329" y="-125" type="line"/>
      <point x="194" y="-125" type="line"/>
      <point x="194" y="-157" type="line"/>
      <point x="328" y="-157" type="line"/>
      <point x="328" y="-247" type="line"/>
      <point x="162" y="-247" type="line" smooth="yes"/>
      <point x="152" y="-247"/>
      <point x="129" y="-245"/>
      <point x="110" y="-237"/>
      <point x="97" y="-222"/>
      <point x="97" y="-209" type="qcurve" smooth="yes"/>
    </contour>
  </outline>
</glyph>
<glyph name="gravecomb" format="2">
  <advance width="398"/>
  <unicode hex="0300"/>
  <outline>
    <contour>
      <point x="64" y="884" type="line"/>
      <point x="242" y="884" type="line"/>
      <point x="350" y="716" type="line"/>
      <point x="167" y="716" type="line"/>
    </contour>
  </outline>
</glyph>
<glyph name="acutecomb" format="2">
  <advance width="456"/>
  <unicode hex="0301"/>
  <outline>
    <contour>
      <point x="287" y="716" type="line"/>
      <point x="104" y="716" type="line"/>
      <point x="212" y="884" type="line"/>
      <point x="390" y="884" type="line"/>
    </contour>
  </outline>
</glyph>
<glyph name="tildecomb" format="2">
  <advance width="530"/>
  <unicode hex="0303"/>
  <outline>
    <contour>
      <point x="505" y="830" type="line"/>
      <point x="504" y="828"/>
      <point x="487" y="798"/>
      <point x="471" y="780" type="qcurve" smooth="yes"/>
      <point x="451" y="757"/>
      <point x="429" y="741" type="qcurve" smooth="yes"/>
      <point x="399" y="720"/>
      <point x="364" y="712" type="qcurve" smooth="yes"/>
      <point x="349" y="708"/>
      <point x="332" y="708" type="qcurve" smooth="yes"/>
      <point x="322" y="708"/>
      <point x="304" y="711"/>
      <point x="294" y="713" type="qcurve" smooth="yes"/>
      <point x="258" y="720"/>
      <point x="222" y="747" type="qcurve" smooth="yes"/>
      <point x="211" y="755"/>
      <point x="202" y="757"/>
      <point x="200" y="757" type="qcurve"/>
      <point x="198" y="757"/>
      <point x="197" y="756" type="qcurve"/>
      <point x="181" y="751"/>
      <point x="166" y="733" type="qcurve"/>
      <point x="156" y="723"/>
      <point x="152" y="716" type="qcurve" smooth="yes"/>
      <point x="150" y="714"/>
      <point x="148" y="710"/>
      <point x="147" y="708" type="qcurve"/>
      <point x="34" y="771" type="line"/>
      <point x="35" y="773"/>
      <point x="52" y="801"/>
      <point x="67" y="819" type="qcurve" smooth="yes"/>
      <point x="76" y="830"/>
      <point x="96" y="848"/>
      <point x="107" y="856" type="qcurve" smooth="yes"/>
      <point x="140" y="880"/>
      <point x="168" y="884" type="qcurve"/>
      <point x="181" y="888"/>
      <point x="202" y="888" type="qcurve" smooth="yes"/>
      <point x="208" y="888"/>
      <point x="225" y="888"/>
      <point x="249" y="883"/>
      <point x="279" y="869"/>
      <point x="299" y="854" type="qcurve" smooth="yes"/>
      <point x="315" y="841"/>
      <point x="327" y="840"/>
      <point x="329" y="840" type="qcurve"/>
      <point x="335" y="840"/>
      <point x="336" y="841" type="qcurve"/>
      <point x="353" y="844"/>
      <point x="374" y="868" type="qcurve" smooth="yes"/>
      <point x="377" y="872"/>
      <point x="383" y="880"/>
      <point x="386" y="885" type="qcurve" smooth="yes"/>
      <point x="388" y="887"/>
      <point x="390" y="891"/>
      <point x="391" y="893" type="qcurve"/>
      <point x="448" y="860" type="line"/>
    </contour>
  </outline>
</glyph>
<glyph name="macroncomb" format="2">
  <advance width="363"/>
  <unicode hex="0304"/>
  <outline>
    <contour>
      <point x="25" y="851" type="line"/>
      <point x="341" y="851" type="line"/>
      <point x="341" y="713" type="line"/>
      <point x="25" y="713" type="line"/>
    </contour>
  </outline>
</glyph>
<glyph name="dotaccentcomb" format="2">
  <advance width="291"/>
  <unicode hex="0307"/>
  <outline>
    <contour>
      <point x="150" y="870" type="qcurve" smooth="yes"/>
      <point x="168" y="870"/>
      <point x="204" y="858"/>
      <point x="233" y="837"/>
      <point x="251" y="806"/>
      <point x="251" y="787" type="qcurve" smooth="yes"/>
      <point x="251" y="768"/>
      <point x="233" y="738"/>
      <point x="204" y="717"/>
      <point x="168" y="706"/>
      <point x="150" y="706" type="qcurve" smooth="yes"/>
      <point x="132" y="706"/>
      <point x="96" y="717"/>
      <point x="67" y="738"/>
      <point x="48" y="768"/>
      <point x="48" y="787" type="qcurve" smooth="yes"/>
      <point x="48" y="807"/>
      <point x="67" y="838"/>
      <point x="96" y="859"/>
      <point x="132" y="870"/>
    </contour>
  </outline>
</glyph>
<glyph name="dieresiscomb" format="2">
  <advance width="546"/>
  <unicode hex="0308"/>
  <outline>
    <contour>
      <point x="156" y="870" type="qcurve" smooth="yes"/>
      <point x="173" y="870"/>
      <point x="209" y="858"/>
      <point x="238" y="837"/>
      <point x="257" y="806"/>
      <point x="257" y="787" type="qcurve" smooth="yes"/>
      <point x="257" y="768"/>
      <point x="238" y="738"/>
      <point x="209" y="717"/>
      <point x="173" y="706"/>
      <point x="156" y="706" type="qcurve" smooth="yes"/>
      <point x="138" y="706"/>
      <point x="102" y="717"/>
      <point x="73" y="738"/>
      <point x="54" y="768"/>
      <point x="54" y="787" type="qcurve" smooth="yes"/>
      <point x="54" y="807"/>
      <point x="73" y="838"/>
      <point x="102" y="859"/>
      <point x="138" y="870"/>
    </contour>
    <contour>
      <point x="411" y="870" type="qcurve" smooth="yes"/>
      <point x="429" y="870"/>
      <point x="465" y="858"/>
      <point x="494" y="837"/>
      <point x="512" y="806"/>
      <point x="512" y="787" type="qcurve" smooth="yes"/>
      <point x="512" y="768"/>
      <point x="494" y="738"/>
      <point x="465" y="717"/>
      <point x="429" y="706"/>
      <point x="411" y="706" type="qcurve" smooth="yes"/>
      <point x="393" y="706"/>
      <point x="357" y="717"/>
      <point x="328" y="738"/>
      <point x="309" y="768"/>
      <point x="309" y="787" type="qcurve" smooth="yes"/>
      <point x="309" y="807"/>
      <point x="328" y="838"/>
      <point x="357" y="859"/>
      <point x="393" y="870"/>
    </contour>
  </outline>
</glyph>
<glyph name="wgrave" format="2">
  <advance width="1091"/>
  <unicode hex="1E81"/>
  <outline>
    <contour>
      <point x="360" y="884" type="line"/>
      <point x="538" y="884" type="line"/>
      <point x="646" y="716" type="line"/>
      <point x="463" y="716" type="line"/>
    </contour>
    <contour>
      <point x="1084" y="679" type="line"/>
      <point x="1084" y="666" type="line"/>
      <point x="1051" y="652"/>
      <point x="1037" y="620"/>
      <point x="1037" y="603" type="qcurve" smooth="yes"/>
      <point x="1037" y="599"/>
      <point x="1038" y="578"/>
      <point x="1038" y="556" type="qcurve" smooth="yes"/>
      <point x="1038" y="326" type="line" smooth="yes"/>
      <point x="1038" y="277"/>
      <point x="1010" y="236" type="qcurve" smooth="yes"/>
      <point x="1006" y="229"/>
      <point x="984" y="199"/>
      <point x="956" y="159"/>
      <point x="926" y="116"/>
      <point x="902" y="78"/>
      <point x="886" y="49"/>
      <point x="886" y="45" type="qcurve" smooth="yes"/>
      <point x="886" y="32"/>
      <point x="908" y="17"/>
      <point x="919" y="13" type="qcurve"/>
      <point x="919" y="0" type="line"/>
      <point x="552" y="0" type="line"/>
      <point x="552" y="13" type="line"/>
      <point x="563" y="17"/>
      <point x="585" y="32"/>
      <point x="585" y="45" type="qcurve" smooth="yes"/>
      <point x="585" y="51"/>
      <point x="576" y="70"/>
      <point x="563" y="89"/>
      <point x="550" y="106"/>
      <point x="546" y="111" type="qcurve"/>
      <point x="542" y="106"/>
      <point x="529" y="89"/>
      <point x="516" y="70"/>
      <point x="507" y="51"/>
      <point x="507" y="45" type="qcurve" smooth="yes"/>
      <point x="507" y="32"/>
      <point x="529" y="17"/>
      <point x="540" y="13" type="qcurve"/>
      <point x="540" y="0" type="line"/>
      <point x="174" y="0" type="line"/>
      <point x="174" y="13" type="line"/>
      <point x="184" y="17"/>
      <point x="207" y="32"/>
      <point x="207" y="45" type="qcurve" smooth="yes"/>
      <point x="207" y="49"/>
      <point x="191" y="77"/>
      <point x="166" y="115"/>
      <point x="136" y="158"/>
      <point x="108" y="198"/>
      <point x="87" y="229"/>
      <point x="83" y="236" type="qcurve" smooth="yes"/>
      <point x="69" y="257"/>
      <point x="54" y="300"/>
      <point x="54" y="326" type="qcurve" smooth="yes"/>
      <point x="54" y="556" type="line" smooth="yes"/>
      <point x="54" y="578"/>
      <point x="55" y="599"/>
      <point x="55" y="603" type="qcurve" smooth="yes"/>
      <point x="55" y="620"/>
      <point x="41" y="652"/>
      <point x="8" y="666" type="qcurve"/>
      <point x="8" y="679" type="line"/>
      <point x="327" y="679" type="line"/>
      <point x="327" y="666" type="line"/>
      <point x="310" y="660"/>
      <point x="281" y="637"/>
      <point x="281" y="617" type="qcurve" smooth="yes"/>
      <point x="281" y="357" type="line" smooth="yes"/>
      <point x="281" y="334"/>
      <point x="295" y="292"/>
      <point x="317" y="253"/>
      <point x="344" y="216"/>
      <point x="357" y="198" type="qcurve"/>
      <point x="370" y="216"/>
      <point x="396" y="253"/>
      <point x="418" y="292"/>
      <point x="432" y="333"/>
      <point x="432" y="357" type="qcurve" smooth="yes"/>
      <point x="432" y="617" type="line" smooth="yes"/>
      <point x="432" y="637"/>
      <point x="403" y="659"/>
      <point x="387" y="666" type="qcurve"/>
      <point x="387" y="679" type="line"/>
      <point x="706" y="679" type="line"/>
      <point x="706" y="666" type="line"/>
      <point x="689" y="660"/>
      <point x="660" y="637"/>
      <point x="660" y="617" type="qcurve" smooth="yes"/>
      <point x="660" y="357" type="line" smooth="yes"/>
      <point x="660" y="333"/>
      <point x="674" y="291"/>
      <point x="696" y="253"/>
      <point x="722" y="217"/>
      <point x="735" y="198" type="qcurve"/>
      <point x="748" y="217"/>
      <point x="775" y="254"/>
      <point x="797" y="292"/>
      <point x="811" y="333"/>
      <point x="811" y="357" type="qcurve" smooth="yes"/>
      <point x="811" y="617" type="line" smooth="yes"/>
      <point x="811" y="637"/>
      <point x="782" y="660"/>
      <point x="765" y="666" type="qcurve"/>
      <point x="765" y="679" type="line"/>
    </contour>
  </outline>
</glyph>
<glyph name="quotedblright" format="2">
  <advance width="570"/>
  <unicode hex="201D"/>
  <outline>
    <contour>
      <point x="109" y="470" type="line"/>
      <point x="79" y="479"/>
      <point x="33" y="524"/>
      <point x="33" y="557" type="qcurve" smooth="yes"/>
      <point x="33" y="579"/>
      <point x="53" y="614"/>
      <point x="86" y="638"/>
      <point x="126" y="650"/>
      <point x="146" y="650" type="qcurve" smooth="yes"/>
      <point x="165" y="650"/>
      <point x="206" y="638"/>
      <point x="239" y="614"/>
      <point x="260" y="579"/>
      <point x="260" y="557" type="qcurve" smooth="yes"/>
      <point x="260" y="530"/>
      <point x="241" y="484"/>
      <point x="210" y="446"/>
      <point x="169" y="415"/>
      <point x="147" y="403" type="qcurve"/>
      <point x="109" y="403" type="line"/>
    </contour>
    <contour>
      <point x="375" y="470" type="line"/>
      <point x="345" y="479"/>
      <point x="299" y="524"/>
      <point x="299" y="557" type="qcurve" smooth="yes"/>
      <point x="299" y="579"/>
      <point x="319" y="614"/>
      <point x="352" y="638"/>
      <point x="392" y="650"/>
      <point x="412" y="650" type="qcurve" smooth="yes"/>
      <point x="431" y="650"/>
      <point x="472" y="638"/>
      <point x="505" y="614"/>
      <point x="526" y="579"/>
      <point x="526" y="557" type="qcurve" smooth="yes"/>
      <point x="526" y="530"/>
      <point x="507" y="484"/>
      <point x="476" y="446"/>
      <point x="435" y="415"/>
      <point x="413" y="403" type="qcurve"/>
      <point x="375" y="403" type="line"/>
    </contour>
  </outline>
</glyph>
<glyph name="bullet" format="2">
  <advance width="306"/>
  <unicode hex="2022"/>
  <outline>
    <contour>
      <point x="28" y="352" type="qcurve" smooth="yes"/>
      <point x="28" y="377"/>
      <point x="48" y="423"/>
      <point x="81" y="456"/>
      <point x="126" y="476"/>
      <point x="152" y="476" type="qcurve" smooth="yes"/>
      <point x="177" y="476"/>
      <point x="223" y="456"/>
      <point x="256" y="423"/>
      <point x="276" y="377"/>
      <point x="276" y="352" type="qcurve" smooth="yes"/>
      <point x="276" y="326"/>
      <point x="256" y="281"/>
      <point x="223" y="248"/>
      <point x="177" y="228"/>
      <point x="152" y="228" type="qcurve" smooth="yes"/>
      <point x="126" y="228"/>
      <point x="81" y="248"/>
      <point x="48" y="281"/>
      <point x="28" y="326"/>
    </contour>
  </outline>
</glyph>
<glyph name="ellipsis" format="2">
  <advance width="840"/>
  <unicode hex="2026"/>
  <outline>
    <contour>
      <point x="139" y="185" type="qcurve" smooth="yes"/>
      <point x="158" y="185"/>
      <point x="199" y="172"/>
      <point x="231" y="148"/>
      <point x="252" y="114"/>
      <point x="252" y="92" type="qcurve" smooth="yes"/>
      <point x="252" y="70"/>
      <point x="231" y="36"/>
      <point x="199" y="12"/>
      <point x="158" y="0"/>
      <point x="139" y="0" type="qcurve" smooth="yes"/>
      <point x="119" y="0"/>
      <point x="79" y="12"/>
      <point x="46" y="36"/>
      <point x="25" y="70"/>
      <point x="25" y="92" type="qcurve" smooth="yes"/>
      <point x="25" y="114"/>
      <point x="46" y="149"/>
      <point x="79" y="173"/>
      <point x="119" y="185"/>
    </contour>
    <contour>
      <point x="419" y="185" type="qcurve" smooth="yes"/>
      <point x="438" y="185"/>
      <point x="479" y="172"/>
      <point x="511" y="148"/>
      <point x="532" y="114"/>
      <point x="532" y="92" type="qcurve" smooth="yes"/>
      <point x="532" y="70"/>
      <point x="511" y="36"/>
      <point x="479" y="12"/>
      <point x="438" y="0"/>
      <point x="419" y="0" type="qcurve" smooth="yes"/>
      <point x="399" y="0"/>
      <point x="359" y="12"/>
      <point x="326" y="36"/>
      <point x="305" y="70"/>
      <point x="305" y="92" type="qcurve" smooth="yes"/>
      <point x="305" y="114"/>
      <point x="326" y="149"/>
      <point x="359" y="173"/>
      <point x="399" y="185"/>
    </contour>
    <contour>
      <point x="699" y="185" type="qcurve" smooth="yes"/>
      <point x="718" y="185"/>
      <point x="759" y="172"/>
      <point x="791" y="148"/>
      <point x="812" y="114"/>
      <point x="812" y="92" type="qcurve" smooth="yes"/>
      <point x="812" y="70"/>
      <point x="791" y="36"/>
      <point x="759" y="12"/>
      <point x="718" y="0"/>
      <point x="699" y="0" type="qcurve" smooth="yes"/>
      <point x="679" y="0"/>
      <point x="639" y="12"/>
      <point x="606" y="36"/>
      <point x="585" y="70"/>
      <point x="585" y="92" type="qcurve" smooth="yes"/>
      <point x="585" y="114"/>
      <point x="606" y="149"/>
      <point x="639" y="173"/>
      <point x="679" y="185"/>
    </contour>
  </outline>
</glyph>
<glyph name="guilsinglleft" format="2">
  <advance width="412"/>
  <unicode hex="2039"/>
  <outline>
    <contour>
      <point x="366" y="86" type="line"/>
      <point x="199" y="86" type="line"/>
      <point x="43" y="271" type="line"/>
      <point x="43" y="343" type="line"/>
      <point x="197" y="526" type="line"/>
      <point x="365" y="526" type="line"/>
      <point x="180" y="307" type="line"/>
    </contour>
  </outline>
</glyph>
<glyph name="euro" format="2">
  <advance width="688"/>
  <unicode hex="20AC"/>
  <outline>
    <contour>
      <point x="30" y="407" type="line"/>
      <point x="74" y="407" type="line"/>
      <point x="74" y="586" type="line" smooth="yes"/>
      <point x="74" y="616"/>
      <point x="103" y="653"/>
      <point x="148" y="673"/>
      <point x="201" y="679"/>
      <point x="225" y="679" type="qcurve" smooth="yes"/>
      <point x="489" y="679" type="line" smooth="yes"/>
      <point x="513" y="679"/>
      <point x="566" y="673"/>
      <point x="611" y="653"/>
      <point x="640" y="616"/>
      <point x="640" y="586" type="qcurve" smooth="yes"/>
      <point x="640" y="432" type="line"/>
      <point x="376" y="432" type="line"/>
      <point x="376" y="445" type="line"/>
      <point x="393" y="451"/>
      <point x="422" y="474"/>
      <point x="422" y="494" type="qcurve"/>
      <point x="301" y="494" type="line"/>
      <point x="301" y="407" type="line"/>
      <point x="435" y="407" type="line"/>
      <point x="435" y="359" type="line"/>
      <point x="301" y="359" type="line"/>
      <point x="301" y="326" type="line"/>
      <point x="435" y="326" type="line"/>
      <point x="435" y="273" type="line"/>
      <point x="301" y="273" type="line"/>
      <point x="301" y="185" type="line"/>
      <point x="422" y="185" type="line"/>
      <point x="422" y="205"/>
      <point x="393" y="228"/>
      <point x="376" y="234" type="qcurve"/>
      <point x="376" y="247" type="line"/>
      <point x="640" y="247" type="line"/>
      <point x="640" y="93" type="line" smooth="yes"/>
      <point x="640" y="63"/>
      <point x="611" y="26"/>
      <point x="566" y="6"/>
      <point x="513" y="0"/>
      <point x="489" y="0" type="qcurve" smooth="yes"/>
      <point x="225" y="0" type="line" smooth="yes"/>
      <point x="201" y="0"/>
      <point x="148" y="6"/>
      <point x="103" y="26"/>
      <point x="74" y="63"/>
      <point x="74" y="93" type="qcurve" smooth="yes"/>
      <point x="74" y="273" type="line"/>
      <point x="30" y="273" type="line"/>
      <point x="30" y="326" type="line"/>
      <point x="74" y="326" type="line"/>
      <point x="74" y="359" type="line"/>
      <point x="30" y="359" type="line"/>
    </contour>
  </outline>
</glyph>
<glyph name="trademark" format="2">
  <advance width="694"/>
  <unicode hex="2122"/>
  <outline>
    <contour>
      <point x="23" y="658" type="line"/>
      <point x="269" y="658" type="line"/>
      <point x="269" y="554" type="line"/>
      <point x="262" y="554" type="line"/>
      <point x="251" y="571"/>
      <point x="234" y="571" type="qcurve" smooth="yes"/>
      <point x="200" y="571" type="line"/>
      <point x="200" y="369" type="line" smooth="yes"/>
      <point x="200" y="360"/>
      <point x="213" y="349"/>
      <point x="221" y="346" type="qcurve"/>
      <point x="221" y="340" type="line"/>
      <point x="72" y="340" type="line"/>
      <point x="72" y="346" type="line"/>
      <point x="79" y="349"/>
      <point x="93" y="360"/>
      <point x="93" y="369" type="qcurve" smooth="yes"/>
      <point x="93" y="571" type="line"/>
      <point x="59" y="571" type="line" smooth="yes"/>
      <point x="42" y="571"/>
      <point x="31" y="554" type="qcurve"/>
      <point x="23" y="554" type="line"/>
    </contour>
    <contour>
      <point x="647" y="369" type="line" smooth="yes"/>
      <point x="647" y="360"/>
      <point x="661" y="349"/>
      <point x="669" y="346" type="qcurve"/>
      <point x="669" y="340" type="line"/>
      <point x="519" y="340" type="line"/>
      <point x="519" y="346" type="line"/>
      <point x="527" y="349"/>
      <point x="540" y="360"/>
      <point x="540" y="369" type="qcurve" smooth="yes"/>
      <point x="540" y="508" type="line"/>
      <point x="479" y="416" type="line"/>
      <point x="463" y="439"/>
      <point x="432" y="485"/>
      <point x="416" y="508" type="qcurve"/>
      <point x="416" y="369" type="line" smooth="yes"/>
      <point x="416" y="360"/>
      <point x="431" y="349"/>
      <point x="438" y="346" type="qcurve"/>
      <point x="438" y="340" type="line"/>
      <point x="289" y="340" type="line"/>
      <point x="289" y="346" type="line"/>
      <point x="297" y="349"/>
      <point x="310" y="360"/>
      <point x="310" y="369" type="qcurve" smooth="yes"/>
      <point x="310" y="629" type="line" smooth="yes"/>
      <point x="310" y="638"/>
      <point x="297" y="649"/>
      <point x="289" y="652" type="qcurve"/>
      <point x="289" y="658" type="line"/>
      <point x="438" y="658" type="line"/>
      <point x="438" y="652" type="line"/>
      <point x="431" y="649"/>
      <point x="416" y="638"/>
      <point x="416" y="629" type="qcurve"/>
      <point x="479" y="536" type="line"/>
      <point x="540" y="629" type="line"/>
      <point x="540" y="638"/>
      <point x="527" y="649"/>
      <point x="519" y="652" type="qcurve"/>
      <point x="519" y="658" type="line"/>
      <point x="669" y="658" type="line"/>
      <point x="669" y="652" type="line"/>
      <point x="661" y="649"/>
      <point x="647" y="638"/>
      <point x="647" y="629" type="qcurve" smooth="yes"/>
    </contour>
  </outline>
</glyph>
<glyph name="minus" format="2">
  <advance width="491"/>
  <unicode hex="2212"/>
  <outline>
    <contour>
      <point x="31" y="432" type="line"/>
      <point x="460" y="432" type="line"/>
      <point x="460" y="264" type="line"/>
      <point x="31" y="264" type="line"/>
    </contour>
  </outline>
</glyph>
<glyph name="Germandbls" format="2">
  <advance width="723"/>
  <outline>
    <contour>
      <point x="210" y="679" type="qcurve" smooth="yes"/>
      <point x="704" y="679" type="line"/>
      <point x="704" y="666" type="line"/>
      <point x="688" y="661"/>
      <point x="673" y="649" type="qcurve" smooth="yes"/>
      <point x="661" y="640"/>
      <point x="658" y="626" type="qcurve"/>
      <point x="658" y="432" type="line" smooth="yes"/>
      <point x="658" y="393"/>
      <point x="620" y="351"/>
      <point x="589" y="343" type="qcurve" smooth="yes"/>
      <point x="581" y="341"/>
      <point x="567" y="340"/>
      <point x="560" y="339" type="qcurve"/>
      <point x="574" y="337" type="line" smooth="yes"/>
      <point x="581" y="336"/>
      <point x="589" y="334" type="qcurve" smooth="yes"/>
      <point x="620" y="328"/>
      <point x="658" y="286"/>
      <point x="658" y="247" type="qcurve" smooth="yes"/>
      <point x="658" y="92" type="line" smooth="yes"/>
      <point x="658" y="62"/>
      <point x="628" y="25"/>
      <point x="583" y="6"/>
      <point x="530" y="0"/>
      <point x="507" y="0" type="qcurve" smooth="yes"/>
      <point x="321" y="0" type="line"/>
      <point x="321" y="185" type="line"/>
      <point x="431" y="185" type="line"/>
      <point x="431" y="278" type="line"/>
      <point x="320" y="278" type="line"/>
      <point x="320" y="401" type="line"/>
      <point x="431" y="401" type="line"/>
      <point x="431" y="494" type="line"/>
      <point x="286" y="494" type="line"/>
      <point x="286" y="0" type="line"/>
      <point x="12" y="0" type="line"/>
      <point x="12" y="13" type="line"/>
      <point x="28" y="18"/>
      <point x="58" y="41"/>
      <point x="58" y="61" type="qcurve" smooth="yes"/>
      <point x="58" y="586" type="line" smooth="yes"/>
      <point x="58" y="616"/>
      <point x="88" y="653"/>
      <point x="133" y="673"/>
      <point x="186" y="679"/>
    </contour>
  </outline>
</glyph>
<glyph name=".notdef" format="2">
  <advance width="636"/>
  <outline>
    <contour>
      <point x="25" y="678" type="line"/>
      <point x="607" y="678" type="line"/>
      <point x="607" y="0" type="line"/>
      <point x="25" y="0" type="line"/>
    </contour>
    <contour>
      <point x="194" y="168" type="line"/>
      <point x="440" y="168" type="line"/>
      <point x="440" y="510" type="line"/>
      <point x="194" y="510" type="line"/>
    </contour>
  </outline>
</glyph>
<glyph name="cedillacomb" format="2">
  <advance width="337"/>
  <outline>
    <contour>
      <point x="319" y="-209" type="line" smooth="yes"/>
      <point x="319" y="-222"/>
      <point x="306" y="-237"/>
      <point x="286" y="-245"/>
      <point x="264" y="-247"/>
      <point x="254" y="-247" type="qcurve" smooth="yes"/>
      <point x="88" y="-247" type="line"/>
      <point x="88" y="-157" type="line"/>
      <point x="222" y="-157" type="line"/>
      <point x="222" y="-125" type="line"/>
      <point x="87" y="-125" type="line"/>
      <point x="87" y="0" type="line"/>
      <point x="191" y="0" type="line"/>
      <point x="191" y="-44" type="line"/>
      <point x="255" y="-44" type="line" smooth="yes"/>
      <point x="263" y="-44"/>
      <point x="285" y="-47"/>
      <point x="305" y="-55"/>
      <point x="319" y="-70"/>
      <point x="319" y="-82" type="qcurve" smooth="yes"/>
    </contour>
  </outline>
</glyph>
<glyph name="guillemetleft" format="2">
  <advance width="728"/>
  <outline>
    <contour>
      <point x="334" y="399" type="line"/>
      <point x="702" y="634" type="line"/>
      <point x="702" y="496" type="line"/>
      <point x="473" y="349" type="line"/>
      <point x="530" y="314"/>
      <point x="645" y="237"/>
      <point x="702" y="202" type="qcurve"/>
      <point x="702" y="64" type="line"/>
      <point x="334" y="300" type="line"/>
    </contour>
    <contour>
      <point x="23" y="399" type="line"/>
      <point x="391" y="634" type="line"/>
      <point x="391" y="496" type="line"/>
      <point x="162" y="349" type="line"/>
      <point x="219" y="314"/>
      <point x="334" y="237"/>
      <point x="391" y="202" type="qcurve"/>
      <point x="391" y="64" type="line"/>
      <point x="23" y="300" type="line"/>
    </contour>
  </outline>
</glyph>
<glyph name="guillemetright" format="2">
  <advance width="728"/>
  <outline>
    <contour>
      <point x="391" y="300" type="line"/>
      <point x="23" y="64" type="line"/>
      <point x="23" y="202" type="line"/>
      <point x="80" y="237"/>
      <point x="195" y="314"/>
      <point x="252" y="349" type="qcurve"/>
      <point x="23" y="496" type="line"/>
      <point x="23" y="634" type="line"/>
      <point x="391" y="399" type="line"/>
    </contour>
    <contour>
      <point x="702" y="300" type="line"/>
      <point x="334" y="64" type="line"/>
      <point x="334" y="202" type="line"/>
      <point x="391" y="237"/>
      <point x="506" y="314"/>
      <point x="563" y="349" type="qcurve"/>
      <point x="334" y="496" type="line"/>
      <point x="334" y="634" type="line"/>
      <point x="702" y="399" type="line"/>
    </contour>
  </outline>
</glyph>
<glyph name="hungarumlautcomb" format="2">
  <advance width="660"/>
  <outline>
    <contour>
      <point x="240" y="716" type="line"/>
      <point x="57" y="716" type="line"/>
      <point x="165" y="884" type="line"/>
      <point x="343" y="884" type="line"/>
    </contour>
    <contour>
      <point x="506" y="716" type="line"/>
      <point x="323" y="716" type="line"/>
      <point x="431" y="884" type="line"/>
      <point x="609" y="884" type="line"/>
    </contour>
  </outline>
</glyph>
<glyph name="jdotless" format="2">
  <advance width="647"/>
  <outline>
    <contour>
      <point x="124" y="493" type="line" smooth="yes"/>
      <point x="104" y="493"/>
      <point x="74" y="473"/>
      <point x="64" y="456" type="qcurve"/>
      <point x="48" y="456" type="line"/>
      <point x="48" y="678" type="line"/>
      <point x="621" y="678" type="line"/>
      <point x="621" y="92" type="line" smooth="yes"/>
      <point x="621" y="62"/>
      <point x="592" y="25"/>
      <point x="547" y="6"/>
      <point x="494" y="0"/>
      <point x="470" y="0" type="qcurve" smooth="yes"/>
      <point x="199" y="0" type="line" smooth="yes"/>
      <point x="175" y="0"/>
      <point x="122" y="6"/>
      <point x="77" y="25"/>
      <point x="48" y="61"/>
      <point x="48" y="92" type="qcurve" smooth="yes"/>
      <point x="48" y="246" type="line"/>
      <point x="321" y="246" type="line"/>
      <point x="321" y="233" type="line"/>
      <point x="305" y="227"/>
      <point x="275" y="205"/>
      <point x="275" y="185" type="qcurve"/>
      <point x="394" y="185" type="line"/>
      <point x="394" y="493" type="line"/>
    </contour>
  </outline>
</glyph>
<glyph name="ogonekcomb" format="2">
  <advance width="317"/>
  <outline>
    <contour>
      <point x="32" y="-82" type="line" smooth="yes"/>
      <point x="32" y="-70"/>
      <point x="46" y="-55"/>
      <point x="66" y="-47"/>
      <point x="88" y="-44"/>
      <point x="96" y="-44" type="qcurve" smooth="yes"/>
      <point x="160" y="-44" type="line"/>
      <point x="160" y="0" type="line"/>
      <point x="264" y="0" type="line"/>
      <point x="264" y="-125" type="line"/>
      <point x="129" y="-125" type="line"/>
      <point x="129" y="-157" type="line"/>
      <point x="263" y="-157" type="line"/>
      <point x="263" y="-247" type="line"/>
      <point x="97" y="-247" type="line" smooth="yes"/>
      <point x="87" y="-247"/>
      <point x="64" y="-245"/>
      <point x="45" y="-237"/>
      <point x="32" y="-222"/>
      <point x="32" y="-209" type="qcurve" smooth="yes"/>
    </contour>
  </outline>
</glyph>
<glyph name="periodcentered.loclCAT.case" format="2">
  <advance width="257"/>
  <outline>
    <contour>
      <point x="127" y="487" type="qcurve" smooth="yes"/>
      <point x="145" y="487"/>
      <point x="181" y="475"/>
      <point x="210" y="454"/>
      <point x="228" y="423"/>
      <point x="228" y="404" type="qcurve" smooth="yes"/>
      <point x="228" y="385"/>
      <point x="210" y="355"/>
      <point x="181" y="334"/>
      <point x="145" y="323"/>
      <point x="127" y="323" type="qcurve" smooth="yes"/>
      <point x="109" y="323"/>
      <point x="73" y="334"/>
      <point x="44" y="355"/>
      <point x="25" y="385"/>
      <point x="25" y="404" type="qcurve" smooth="yes"/>
      <point x="25" y="424"/>
      <point x="44" y="455"/>
      <point x="73" y="476"/>
      <point x="109" y="487"/>
    </contour>
  </outline>
</glyph>
